<?xml version="1.0" encoding="utf-8"?>
<!-- Generator: Adobe Illustrator 22.0.0, SVG Export Plug-In . SVG Version: 6.00 Build 0)  -->
<svg version="1.1" id="_x2014_ÎÓÈ_x5F_1" xmlns="http://www.w3.org/2000/svg" xmlns:xlink="http://www.w3.org/1999/xlink"
	 x="0px" y="0px" viewBox="0 0 3642.8 930.25" style="enable-background:new 0 0 3642.8 930.25;" xml:space="preserve">
<style type="text/css">
	.st0{fill:#EFEEFE;}
	.st1{fill:none;stroke:#D3D5FC;stroke-width:2.8809;stroke-miterlimit:10;}
	.st2{fill:none;stroke:#D3D5FC;stroke-width:10.4708;stroke-linecap:round;stroke-linejoin:round;stroke-miterlimit:10;}
	.st3{fill:#D3D5FC;}
	.st4{fill:#653087;}
	.st5{fill:#C5C2F9;}
	.st6{fill:#8754AF;}
	.st7{fill:none;stroke:#C5C2F9;stroke-width:7.1487;stroke-linecap:round;stroke-linejoin:round;stroke-miterlimit:10;}
	.st8{fill:#F95F6A;}
	.st9{fill:#45B4AD;}
	.st10{fill:none;stroke:#8754AF;stroke-width:3.8558;stroke-miterlimit:10;}
	.st11{fill:none;stroke:#8754AF;stroke-width:2.739;stroke-linecap:round;stroke-linejoin:round;stroke-miterlimit:10;}
	.st12{fill:none;stroke:#D3D5FC;stroke-width:5.7462;stroke-linecap:round;stroke-linejoin:round;stroke-miterlimit:10;}
	.st13{fill:#F6A19E;}
	.st14{fill:#2E3192;}
	.st15{fill:#4463CD;}
	.st16{fill:none;stroke:#E1EEF7;stroke-width:1.8614;stroke-miterlimit:10;}
	.st17{fill:#2D2B2C;}
	.st18{fill:#FB9C98;}
	.st19{fill:#F26D6D;}
	.st20{fill:#FDC854;}
	.st21{fill:none;stroke:#BBB4F8;stroke-width:7.195;stroke-linecap:round;stroke-miterlimit:10;}
	.st22{fill:none;stroke:#BBB4F8;stroke-width:7.8709;stroke-linecap:round;stroke-miterlimit:10;}
	.st23{fill:none;stroke:#D3D5FC;stroke-width:11.7121;stroke-linecap:round;stroke-linejoin:round;stroke-miterlimit:10;}
	.st24{fill:#FFFFFF;}
	.st25{fill:#BBB4F8;}
	.st26{fill:none;stroke:#BBB4F8;stroke-width:4.6697;stroke-linecap:round;stroke-linejoin:round;stroke-miterlimit:10;}
	.st27{fill:none;stroke:#C5C2F9;stroke-width:4.7213;stroke-linecap:round;stroke-linejoin:round;stroke-miterlimit:10;}
	.st28{fill:none;stroke:#8754AF;stroke-width:2.5465;stroke-miterlimit:10;}
	.st29{fill:#F9E0D2;}
	.st30{fill:#FF9549;}
	.st31{fill:#FFC5AE;}
	.st32{fill:none;stroke:#FFC5AE;stroke-width:1.5463;stroke-miterlimit:10;}
	.st33{fill:none;stroke:#E1EEF7;stroke-width:1.5463;stroke-miterlimit:10;}
	.st34{fill:#766ED3;}
	.st35{fill:none;stroke:#1894A8;stroke-width:1.5463;stroke-miterlimit:10;}
	.st36{fill:none;stroke:#2E3192;stroke-width:2.5505;stroke-miterlimit:10;}
	.st37{fill:none;stroke:#191245;stroke-width:0.2923;stroke-miterlimit:10;}
	.st38{fill:#F89F4F;}
	.st39{fill:none;stroke:#2E3192;stroke-width:1.6178;stroke-miterlimit:10;}
	.st40{fill:none;stroke:#FFC5AE;stroke-width:1.6178;stroke-miterlimit:10;}
	.st41{fill:none;stroke:#E1EEF7;stroke-width:2.4539;stroke-miterlimit:10;}
	.st42{fill:none;stroke:#FFC5AE;stroke-width:2.2031;stroke-miterlimit:10;}
	.st43{fill:none;stroke:#E1EEF7;stroke-width:2.5115;stroke-miterlimit:10;}
	.st44{fill:none;}
	.st45{fill:none;stroke:#2E3192;stroke-width:2.5115;stroke-miterlimit:10;}
	.st46{fill:none;stroke:#BBB4F8;stroke-width:5.0859;stroke-miterlimit:10;}
	.st47{fill:none;stroke:#F26D6D;stroke-width:2.6461;stroke-linecap:round;stroke-miterlimit:10;}
	.st48{fill:none;stroke:#2E3192;stroke-width:3.0516;stroke-linecap:round;stroke-miterlimit:10;}
	.st49{fill:none;stroke:#8754AF;stroke-width:3.0516;stroke-linecap:round;stroke-miterlimit:10;}
	.st50{fill:none;stroke:#BBB4F8;stroke-width:11.0972;stroke-linecap:round;stroke-miterlimit:10;}
	.st51{fill:none;stroke:#191245;stroke-width:1.1158;stroke-miterlimit:10;}
	.st52{fill:none;stroke:#EFEEFE;stroke-width:11.0972;stroke-linecap:round;stroke-linejoin:round;stroke-miterlimit:10;}
	.st53{fill:none;stroke:#C5C2F9;stroke-width:4.4389;stroke-linecap:round;stroke-linejoin:round;stroke-miterlimit:10;}
	.st54{fill:none;stroke:#FFFFFF;stroke-width:3.8971;stroke-linecap:round;stroke-linejoin:round;stroke-miterlimit:10;}
</style>
<g>
	<path class="st0" d="M119.5,923.94C29.66,812.6,27.07,754.39,42.03,721.73c15-32.75,44.46-32.9,63.03-74.85
		c23.63-53.37-10.68-83.34-2.63-151.01c6.9-58,43.68-133.12,102.42-154.95c70.13-26.06,113.49,45.42,181.21,19.7
		c66.1-25.11,49.23-102.48,124.74-139.19c55.65-27.05,134.87-19.07,172.02,21.01c29.53,31.87,9.28,61.46,42.02,101.11
		c38.69,46.87,84.26,27.52,105.48,62.62c33.04,54.64-64.49,122.84-39.82,206.57c17.72,60.14,78.09,59.04,108.48,123.9
		c29.85,63.7,5.81,137.71-17.88,188.62C627.24,924.82,373.37,924.38,119.5,923.94z"/>
	<g>
		<g>
			<g>
				<path class="st1" d="M79.43,922.2c0,0,4.35-19.22-9.05-75.02s-36.23-98.42-36.23-98.42"/>
			</g>
			<g>
				<path class="st1" d="M55.69,799.5c2.73-7.94,5.45-15.89,8.18-23.83"/>
			</g>
			<g>
				<path class="st1" d="M45.63,773.99c-6.47-3.34-12.94-6.69-19.41-10.03"/>
			</g>
			<g>
				<path class="st1" d="M68.8,840.47c0,0,53.75-53.08,9.22-59.22c0,0,16.82-78.24-16.76-45.67c0,0-43.78-72.66-49.08,15.44
					c0,0-30.39-2.37,11.1,35.62C23.27,786.65-26.94,802.52,68.8,840.47z"/>
			</g>
		</g>
	</g>
	<g>
		<g>
			<g>
				<path class="st1" d="M744.92,431.6c0.73-4.59,4.59-25.93,22.8-36.46c10.91-6.31,27.96-9.31,32.5-2.71
					c4.42,6.43-4.1,20.48-12.54,28.12C771.87,434.88,750.14,432.35,744.92,431.6z"/>
			</g>
			<g>
				<path class="st1" d="M731.84,428.53c-3.48-3.07-19.44-17.76-18.58-38.78c0.52-12.59,7.12-28.6,15.12-28.89
					c7.8-0.29,15.1,14.44,17.04,25.65C749.04,407.53,735.26,424.53,731.84,428.53z"/>
			</g>
			<g>
				<path class="st1" d="M742.38,446.12c4.11-2.16,23.54-11.81,42.86-3.5c11.58,4.98,24.17,16.87,21.58,24.45
					c-2.52,7.39-18.88,8.94-30.05,6.74C755.85,469.68,744.89,450.74,742.38,446.12z"/>
			</g>
			<g>
				<path class="st1" d="M701.52,468.88c9.87-9.65,21.14-19.74,33.89-29.85c17.87-14.16,35.16-25.58,50.89-34.77"/>
			</g>
			<path class="st1" d="M728.28,384.54c-1.38,24.68,5.73,55.6,5.73,55.6s16.71,15.12,50.83,20.34"/>
		</g>
	</g>
	<g>
		<g>
			<g>
				<g>
					<g>
						<path class="st1" d="M838.18,858.69c-2.34-7.96-12.47-45.37,8.86-76.33c12.78-18.55,38.01-36.45,50.38-29.27
							c12.07,7,9.07,36.21,1.31,55.01C884.19,843.33,847.17,855.9,838.18,858.69z"/>
					</g>
					<g>
						<path class="st1" d="M768.33,926.13c0,0,40.27-27.68,69.85-67.43c29.59-39.76,45.21-78.48,45.21-78.48"/>
					</g>
					<path class="st1" d="M857.52,830.28c6.78-2.59,13.55-5.18,20.33-7.76"/>
					<path class="st1" d="M873.02,801.79c-1.36-6.14-2.73-12.28-4.09-18.42"/>
				</g>
			</g>
			<path class="st1" d="M800.01,796.58c9.56-7.37,53.44-42.73,54.79-97.37c0.81-32.74-13.58-75.36-34.27-77.48
				c-20.18-2.07-41.61,34.85-48.54,63.6C759,739.19,791.82,785.61,800.01,796.58z"/>
			<g>
				<g>
					<path class="st1" d="M818.64,662.1c0,0-4.21,68.75-18.63,134.47c-14.42,65.72-30.07,129.35-30.07,129.35"/>
				</g>
				<g>
					<path class="st1" d="M810.54,736.91c-5.15-12.49-10.3-24.98-15.45-37.48"/>
				</g>
				<g>
					<path class="st1" d="M815.45,698.47c1.21-4.09,4.39-7.24,7.46-10.21c3.31-3.2,6.61-6.39,9.92-9.59"/>
				</g>
			</g>
		</g>
	</g>
	<g>
		<path class="st2" d="M237.76,127.21c-6.39-8.1-16.3-13.3-27.42-13.3c-11.12,0-21.03,5.2-27.42,13.3"/>
		<path class="st2" d="M256.88,107.68c-11.38-12.86-28.01-20.97-46.53-20.97s-35.15,8.11-46.53,20.97"/>
		<path class="st2" d="M276.09,88.05c-16.35-17.69-39.76-28.76-65.74-28.76c-25.99,0-49.39,11.07-65.74,28.76"/>
	</g>
	<circle class="st3" cx="210.34" cy="146.74" r="11.17"/>
	<g>
		<rect x="341.29" y="431.35" class="st4" width="381.34" height="477.25"/>
		<g>
			<g>
				<path class="st5" d="M727.36,533.07H335.78c-8.15,0-14.79,6.63-14.79,14.79v55.11c0,8.15,6.63,14.79,14.79,14.79h391.59
					c8.15,0,14.79-6.63,14.79-14.79v-55.11C742.15,539.7,735.52,533.07,727.36,533.07z"/>
				<path class="st6" d="M683.27,610.6h-347.5c-4.22,0-7.64-3.42-7.64-7.64v-55.11c0-4.22,3.42-7.64,7.64-7.64h347.5
					c4.22,0,7.64,3.42,7.64,7.64v55.11C690.91,607.19,687.49,610.6,683.27,610.6z"/>
				<line class="st7" x1="341.29" y1="593.97" x2="405.88" y2="593.97"/>
				<line class="st7" x1="341.29" y1="575.41" x2="405.88" y2="575.41"/>
				<line class="st7" x1="341.29" y1="556.85" x2="405.88" y2="556.85"/>
				<line class="st7" x1="431.79" y1="593.97" x2="496.38" y2="593.97"/>
				<line class="st7" x1="431.79" y1="575.41" x2="496.38" y2="575.41"/>
				<line class="st7" x1="431.79" y1="556.85" x2="496.38" y2="556.85"/>
				<line class="st7" x1="523.06" y1="593.97" x2="587.65" y2="593.97"/>
				<line class="st7" x1="523.06" y1="575.41" x2="587.65" y2="575.41"/>
				<line class="st7" x1="523.06" y1="556.85" x2="587.65" y2="556.85"/>
				<line class="st7" x1="613.56" y1="593.97" x2="678.15" y2="593.97"/>
				<line class="st7" x1="613.56" y1="575.41" x2="678.15" y2="575.41"/>
				<line class="st7" x1="613.56" y1="556.85" x2="678.15" y2="556.85"/>
				<rect x="410.13" y="548.14" class="st6" width="17.02" height="17.02"/>
				<circle class="st4" cx="418.64" cy="556.65" r="6.19"/>
				<rect x="410.13" y="566.71" class="st6" width="17.02" height="17.02"/>
				<path class="st8" d="M424.83,575.22c0-3.42-2.77-6.19-6.19-6.19c-3.42,0-6.19,2.77-6.19,6.19c0,3.42,2.77,6.19,6.19,6.19
					C422.06,581.41,424.83,578.63,424.83,575.22z"/>
				<circle class="st9" cx="418.64" cy="593.78" r="6.19"/>
				<rect x="501.4" y="585.27" class="st6" width="17.02" height="17.02"/>
				<circle class="st9" cx="509.91" cy="593.78" r="6.19"/>
				<rect x="501.4" y="566.71" class="st6" width="17.02" height="17.02"/>
				<path class="st9" d="M516.1,575.22c0-3.42-2.77-6.19-6.19-6.19c-3.42,0-6.19,2.77-6.19,6.19c0,3.42,2.77,6.19,6.19,6.19
					C513.33,581.41,516.1,578.63,516.1,575.22z"/>
				<rect x="501.4" y="548.14" class="st6" width="17.02" height="17.02"/>
				<circle class="st4" cx="509.91" cy="556.65" r="6.19"/>
				<rect x="591.9" y="585.27" class="st6" width="17.02" height="17.02"/>
				<path class="st8" d="M606.6,593.78c0-3.42-2.77-6.19-6.19-6.19c-3.42,0-6.19,2.77-6.19,6.19c0,3.42,2.77,6.19,6.19,6.19
					C603.83,599.97,606.6,597.2,606.6,593.78z"/>
				<rect x="591.9" y="566.71" class="st6" width="17.02" height="17.02"/>
				<path class="st9" d="M606.6,575.22c0-3.42-2.77-6.19-6.19-6.19c-3.42,0-6.19,2.77-6.19,6.19c0,3.42,2.77,6.19,6.19,6.19
					C603.83,581.41,606.6,578.63,606.6,575.22z"/>
				<rect x="591.9" y="548.14" class="st6" width="17.02" height="17.02"/>
				<path class="st9" d="M606.6,556.65c0-3.42-2.77-6.19-6.19-6.19c-3.42,0-6.19,2.77-6.19,6.19c0,3.42,2.77,6.19,6.19,6.19
					C603.83,562.84,606.6,560.07,606.6,556.65z"/>
			</g>
			<path class="st6" d="M720.69,594.17c0-3.42-2.77-6.19-6.19-6.19s-6.19,2.77-6.19,6.19s2.77,6.19,6.19,6.19
				S720.69,597.59,720.69,594.17z"/>
			<path class="st6" d="M720.3,558.2c0-3.42-2.77-6.19-6.19-6.19c-3.42,0-6.19,2.77-6.19,6.19c0,3.42,2.77,6.19,6.19,6.19
				C717.53,564.39,720.3,561.62,720.3,558.2z"/>
		</g>
		<g>
			<g>
				<path class="st5" d="M727.36,430.97H335.78c-8.15,0-14.79,6.63-14.79,14.79v55.11c0,8.15,6.63,14.79,14.79,14.79h391.59
					c8.15,0,14.79-6.63,14.79-14.79v-55.11C742.15,437.6,735.52,430.97,727.36,430.97z"/>
				<path class="st6" d="M683.27,508.5h-347.5c-4.22,0-7.64-3.42-7.64-7.64v-55.11c0-4.22,3.42-7.64,7.64-7.64h347.5
					c4.22,0,7.64,3.42,7.64,7.64v55.11C690.91,505.08,687.49,508.5,683.27,508.5z"/>
				<line class="st7" x1="341.29" y1="491.87" x2="405.88" y2="491.87"/>
				<line class="st7" x1="341.29" y1="473.31" x2="405.88" y2="473.31"/>
				<line class="st7" x1="341.29" y1="454.74" x2="405.88" y2="454.74"/>
				<line class="st7" x1="431.79" y1="491.87" x2="496.38" y2="491.87"/>
				<line class="st7" x1="431.79" y1="473.31" x2="496.38" y2="473.31"/>
				<line class="st7" x1="431.79" y1="454.74" x2="496.38" y2="454.74"/>
				<line class="st7" x1="523.06" y1="491.87" x2="587.65" y2="491.87"/>
				<line class="st7" x1="523.06" y1="473.31" x2="587.65" y2="473.31"/>
				<line class="st7" x1="523.06" y1="454.74" x2="587.65" y2="454.74"/>
				<line class="st7" x1="613.56" y1="491.87" x2="678.15" y2="491.87"/>
				<line class="st7" x1="613.56" y1="473.31" x2="678.15" y2="473.31"/>
				<line class="st7" x1="613.56" y1="454.74" x2="678.15" y2="454.74"/>
				<rect x="410.13" y="446.04" class="st6" width="17.02" height="17.02"/>
				<circle class="st9" cx="418.64" cy="454.55" r="6.19"/>
				<rect x="410.13" y="464.61" class="st6" width="17.02" height="17.02"/>
				<path class="st9" d="M424.83,473.11c0-3.42-2.77-6.19-6.19-6.19c-3.42,0-6.19,2.77-6.19,6.19c0,3.42,2.77,6.19,6.19,6.19
					C422.06,479.3,424.83,476.53,424.83,473.11z"/>
				<circle class="st9" cx="418.64" cy="491.68" r="6.19"/>
				<rect x="501.4" y="483.17" class="st6" width="17.02" height="17.02"/>
				<circle class="st9" cx="509.91" cy="491.68" r="6.19"/>
				<rect x="501.4" y="464.61" class="st6" width="17.02" height="17.02"/>
				<path class="st9" d="M516.1,473.11c0-3.42-2.77-6.19-6.19-6.19c-3.42,0-6.19,2.77-6.19,6.19c0,3.42,2.77,6.19,6.19,6.19
					C513.33,479.3,516.1,476.53,516.1,473.11z"/>
				<rect x="501.4" y="446.04" class="st6" width="17.02" height="17.02"/>
				<circle class="st9" cx="509.91" cy="454.55" r="6.19"/>
				<rect x="591.9" y="483.17" class="st6" width="17.02" height="17.02"/>
				<path class="st8" d="M606.6,491.68c0-3.42-2.77-6.19-6.19-6.19c-3.42,0-6.19,2.77-6.19,6.19c0,3.42,2.77,6.19,6.19,6.19
					C603.83,497.87,606.6,495.1,606.6,491.68z"/>
				<rect x="591.9" y="464.61" class="st6" width="17.02" height="17.02"/>
				<path class="st9" d="M606.6,473.11c0-3.42-2.77-6.19-6.19-6.19c-3.42,0-6.19,2.77-6.19,6.19c0,3.42,2.77,6.19,6.19,6.19
					C603.83,479.3,606.6,476.53,606.6,473.11z"/>
				<rect x="591.9" y="446.04" class="st6" width="17.02" height="17.02"/>
				<path class="st9" d="M606.6,454.55c0-3.42-2.77-6.19-6.19-6.19c-3.42,0-6.19,2.77-6.19,6.19c0,3.42,2.77,6.19,6.19,6.19
					C603.83,460.74,606.6,457.97,606.6,454.55z"/>
			</g>
			<path class="st6" d="M720.69,492.07c0-3.42-2.77-6.19-6.19-6.19s-6.19,2.77-6.19,6.19c0,3.42,2.77,6.19,6.19,6.19
				S720.69,495.48,720.69,492.07z"/>
			<path class="st6" d="M720.3,456.1c0-3.42-2.77-6.19-6.19-6.19c-3.42,0-6.19,2.77-6.19,6.19c0,3.42,2.77,6.19,6.19,6.19
				C717.53,462.29,720.3,459.52,720.3,456.1z"/>
		</g>
		<g>
			<g>
				<path class="st5" d="M727.36,737.27H335.78c-8.15,0-14.79,6.63-14.79,14.79v55.11c0,8.15,6.63,14.79,14.79,14.79h391.59
					c8.15,0,14.79-6.63,14.79-14.79v-55.11C742.15,743.91,735.52,737.27,727.36,737.27z"/>
				<path class="st6" d="M683.27,814.81h-347.5c-4.22,0-7.64-3.42-7.64-7.64v-55.11c0-4.22,3.42-7.64,7.64-7.64h347.5
					c4.22,0,7.64,3.42,7.64,7.64v55.11C690.91,811.39,687.49,814.81,683.27,814.81z"/>
				<line class="st7" x1="341.29" y1="798.18" x2="405.88" y2="798.18"/>
				<line class="st7" x1="341.29" y1="779.62" x2="405.88" y2="779.62"/>
				<line class="st7" x1="341.29" y1="761.05" x2="405.88" y2="761.05"/>
				<line class="st7" x1="431.79" y1="798.18" x2="496.38" y2="798.18"/>
				<line class="st7" x1="431.79" y1="779.62" x2="496.38" y2="779.62"/>
				<line class="st7" x1="431.79" y1="761.05" x2="496.38" y2="761.05"/>
				<line class="st7" x1="523.06" y1="798.18" x2="587.65" y2="798.18"/>
				<line class="st7" x1="523.06" y1="779.62" x2="587.65" y2="779.62"/>
				<line class="st7" x1="523.06" y1="761.05" x2="587.65" y2="761.05"/>
				<line class="st7" x1="613.56" y1="798.18" x2="678.15" y2="798.18"/>
				<line class="st7" x1="613.56" y1="779.62" x2="678.15" y2="779.62"/>
				<line class="st7" x1="613.56" y1="761.05" x2="678.15" y2="761.05"/>
				<rect x="410.13" y="752.35" class="st6" width="17.02" height="17.02"/>
				<circle class="st9" cx="418.64" cy="760.86" r="6.19"/>
				<rect x="410.13" y="770.91" class="st6" width="17.02" height="17.02"/>
				<circle class="st9" cx="418.64" cy="779.42" r="6.19"/>
				<circle class="st9" cx="418.64" cy="797.99" r="6.19"/>
				<rect x="501.4" y="789.48" class="st6" width="17.02" height="17.02"/>
				<circle class="st9" cx="509.91" cy="797.99" r="6.19"/>
				<rect x="501.4" y="770.91" class="st6" width="17.02" height="17.02"/>
				<circle class="st9" cx="509.91" cy="779.42" r="6.19"/>
				<rect x="501.4" y="752.35" class="st6" width="17.02" height="17.02"/>
				<circle class="st4" cx="509.91" cy="760.86" r="6.19"/>
				<rect x="591.9" y="789.48" class="st6" width="17.02" height="17.02"/>
				<path class="st4" d="M606.6,797.99c0-3.42-2.77-6.19-6.19-6.19c-3.42,0-6.19,2.77-6.19,6.19c0,3.42,2.77,6.19,6.19,6.19
					C603.83,804.17,606.6,801.4,606.6,797.99z"/>
				<rect x="591.9" y="770.91" class="st6" width="17.02" height="17.02"/>
				<path class="st8" d="M606.6,779.42c0-3.42-2.77-6.19-6.19-6.19c-3.42,0-6.19,2.77-6.19,6.19c0,3.42,2.77,6.19,6.19,6.19
					C603.83,785.61,606.6,782.84,606.6,779.42z"/>
				<rect x="591.9" y="752.35" class="st6" width="17.02" height="17.02"/>
				<path class="st9" d="M606.6,760.86c0-3.42-2.77-6.19-6.19-6.19c-3.42,0-6.19,2.77-6.19,6.19c0,3.42,2.77,6.19,6.19,6.19
					C603.83,767.05,606.6,764.28,606.6,760.86z"/>
			</g>
			<circle class="st6" cx="714.5" cy="798.37" r="6.19"/>
			<path class="st6" d="M720.3,762.4c0-3.42-2.77-6.19-6.19-6.19c-3.42,0-6.19,2.77-6.19,6.19c0,3.42,2.77,6.19,6.19,6.19
				C717.53,768.59,720.3,765.82,720.3,762.4z"/>
		</g>
		<g>
			<g>
				<path class="st5" d="M727.36,635.17H335.78c-8.15,0-14.79,6.63-14.79,14.79v55.11c0,8.15,6.63,14.79,14.79,14.79h391.59
					c8.15,0,14.79-6.63,14.79-14.79v-55.11C742.15,641.8,735.52,635.17,727.36,635.17z"/>
				<path class="st6" d="M683.27,712.71h-347.5c-4.22,0-7.64-3.42-7.64-7.64v-55.11c0-4.22,3.42-7.64,7.64-7.64h347.5
					c4.22,0,7.64,3.42,7.64,7.64v55.11C690.91,709.29,687.49,712.71,683.27,712.71z"/>
				<line class="st7" x1="341.29" y1="696.08" x2="405.88" y2="696.08"/>
				<line class="st7" x1="341.29" y1="677.51" x2="405.88" y2="677.51"/>
				<line class="st7" x1="341.29" y1="658.95" x2="405.88" y2="658.95"/>
				<line class="st7" x1="431.79" y1="696.08" x2="496.38" y2="696.08"/>
				<line class="st7" x1="431.79" y1="677.51" x2="496.38" y2="677.51"/>
				<line class="st7" x1="431.79" y1="658.95" x2="496.38" y2="658.95"/>
				<line class="st7" x1="523.06" y1="696.08" x2="587.65" y2="696.08"/>
				<line class="st7" x1="523.06" y1="677.51" x2="587.65" y2="677.51"/>
				<line class="st7" x1="523.06" y1="658.95" x2="587.65" y2="658.95"/>
				<line class="st7" x1="613.56" y1="696.08" x2="678.15" y2="696.08"/>
				<line class="st7" x1="613.56" y1="677.51" x2="678.15" y2="677.51"/>
				<line class="st7" x1="613.56" y1="658.95" x2="678.15" y2="658.95"/>
				<rect x="410.13" y="650.25" class="st6" width="17.02" height="17.02"/>
				<circle class="st9" cx="418.64" cy="658.76" r="6.19"/>
				<rect x="410.13" y="668.81" class="st6" width="17.02" height="17.02"/>
				<circle class="st4" cx="418.64" cy="677.32" r="6.19"/>
				<circle class="st9" cx="418.64" cy="695.88" r="6.19"/>
				<rect x="501.4" y="687.38" class="st6" width="17.02" height="17.02"/>
				<circle class="st9" cx="509.91" cy="695.88" r="6.19"/>
				<rect x="501.4" y="668.81" class="st6" width="17.02" height="17.02"/>
				<circle class="st9" cx="509.91" cy="677.32" r="6.19"/>
				<rect x="501.4" y="650.25" class="st6" width="17.02" height="17.02"/>
				<circle class="st4" cx="509.91" cy="658.76" r="6.19"/>
				<rect x="591.9" y="687.38" class="st6" width="17.02" height="17.02"/>
				<path class="st9" d="M606.6,695.88c0-3.42-2.77-6.19-6.19-6.19c-3.42,0-6.19,2.77-6.19,6.19c0,3.42,2.77,6.19,6.19,6.19
					C603.83,702.07,606.6,699.3,606.6,695.88z"/>
				<rect x="591.9" y="668.81" class="st6" width="17.02" height="17.02"/>
				<path class="st4" d="M606.6,677.32c0-3.42-2.77-6.19-6.19-6.19c-3.42,0-6.19,2.77-6.19,6.19c0,3.42,2.77,6.19,6.19,6.19
					C603.83,683.51,606.6,680.74,606.6,677.32z"/>
				<rect x="591.9" y="650.25" class="st6" width="17.02" height="17.02"/>
				<path class="st9" d="M606.6,658.76c0-3.42-2.77-6.19-6.19-6.19c-3.42,0-6.19,2.77-6.19,6.19c0,3.42,2.77,6.19,6.19,6.19
					C603.83,664.94,606.6,662.17,606.6,658.76z"/>
			</g>
			<path class="st6" d="M720.69,696.27c0-3.42-2.77-6.19-6.19-6.19s-6.19,2.77-6.19,6.19c0,3.42,2.77,6.19,6.19,6.19
				S720.69,699.69,720.69,696.27z"/>
			<path class="st6" d="M720.3,660.3c0-3.42-2.77-6.19-6.19-6.19c-3.42,0-6.19,2.77-6.19,6.19c0,3.42,2.77,6.19,6.19,6.19
				C717.53,666.49,720.3,663.72,720.3,660.3z"/>
		</g>
		<path class="st10" d="M714.89,697.04h7.73c17.94,0,32.49,14.54,32.49,32.49v0c0,17.94-14.55,32.49-32.49,32.49h-7.73"/>
		<g>
			<g>
				<path class="st5" d="M727.36,838.6H335.78c-8.15,0-14.79,6.63-14.79,14.79v55.11c0,8.15,6.63,14.79,14.79,14.79h391.59
					c8.15,0,14.79-6.63,14.79-14.79v-55.11C742.15,845.23,735.52,838.6,727.36,838.6z"/>
				<path class="st6" d="M683.27,916.14h-347.5c-4.22,0-7.64-3.42-7.64-7.64v-55.11c0-4.22,3.42-7.64,7.64-7.64h347.5
					c4.22,0,7.64,3.42,7.64,7.64v55.11C690.91,912.72,687.49,916.14,683.27,916.14z"/>
				<line class="st7" x1="341.29" y1="899.51" x2="405.88" y2="899.51"/>
				<line class="st7" x1="341.29" y1="880.94" x2="405.88" y2="880.94"/>
				<line class="st7" x1="341.29" y1="862.38" x2="405.88" y2="862.38"/>
				<line class="st7" x1="431.79" y1="899.51" x2="496.38" y2="899.51"/>
				<line class="st7" x1="431.79" y1="880.94" x2="496.38" y2="880.94"/>
				<line class="st7" x1="431.79" y1="862.38" x2="496.38" y2="862.38"/>
				<line class="st7" x1="523.06" y1="899.51" x2="587.65" y2="899.51"/>
				<line class="st7" x1="523.06" y1="880.94" x2="587.65" y2="880.94"/>
				<line class="st7" x1="523.06" y1="862.38" x2="587.65" y2="862.38"/>
				<line class="st7" x1="613.56" y1="899.51" x2="678.15" y2="899.51"/>
				<line class="st7" x1="613.56" y1="880.94" x2="678.15" y2="880.94"/>
				<line class="st7" x1="613.56" y1="862.38" x2="678.15" y2="862.38"/>
				<rect x="410.13" y="853.68" class="st6" width="17.02" height="17.02"/>
				<path class="st9" d="M424.83,862.19c0-3.42-2.77-6.19-6.19-6.19c-3.42,0-6.19,2.77-6.19,6.19c0,3.42,2.77,6.19,6.19,6.19
					C422.06,868.37,424.83,865.6,424.83,862.19z"/>
				<rect x="410.13" y="872.24" class="st6" width="17.02" height="17.02"/>
				<circle class="st9" cx="418.64" cy="880.75" r="6.19"/>
				<path class="st9" d="M424.83,899.31c0-3.42-2.77-6.19-6.19-6.19c-3.42,0-6.19,2.77-6.19,6.19c0,3.42,2.77,6.19,6.19,6.19
					C422.06,905.5,424.83,902.73,424.83,899.31z"/>
				<rect x="501.4" y="890.81" class="st6" width="17.02" height="17.02"/>
				<path class="st9" d="M516.1,899.31c0-3.42-2.77-6.19-6.19-6.19c-3.42,0-6.19,2.77-6.19,6.19c0,3.42,2.77,6.19,6.19,6.19
					C513.33,905.5,516.1,902.73,516.1,899.31z"/>
				<rect x="501.4" y="872.24" class="st6" width="17.02" height="17.02"/>
				<circle class="st9" cx="509.91" cy="880.75" r="6.19"/>
				<rect x="501.4" y="853.68" class="st6" width="17.02" height="17.02"/>
				<path class="st9" d="M516.1,862.19c0-3.42-2.77-6.19-6.19-6.19c-3.42,0-6.19,2.77-6.19,6.19c0,3.42,2.77,6.19,6.19,6.19
					C513.33,868.37,516.1,865.6,516.1,862.19z"/>
				<rect x="591.9" y="890.81" class="st6" width="17.02" height="17.02"/>
				<path class="st8" d="M606.6,899.31c0-3.42-2.77-6.19-6.19-6.19c-3.42,0-6.19,2.77-6.19,6.19c0,3.42,2.77,6.19,6.19,6.19
					C603.83,905.5,606.6,902.73,606.6,899.31z"/>
				<rect x="591.9" y="872.24" class="st6" width="17.02" height="17.02"/>
				<path class="st9" d="M606.6,880.75c0-3.42-2.77-6.19-6.19-6.19c-3.42,0-6.19,2.77-6.19,6.19c0,3.42,2.77,6.19,6.19,6.19
					C603.83,886.94,606.6,884.17,606.6,880.75z"/>
				<rect x="591.9" y="853.68" class="st6" width="17.02" height="17.02"/>
				<path class="st9" d="M606.6,862.19c0-3.42-2.77-6.19-6.19-6.19c-3.42,0-6.19,2.77-6.19,6.19c0,3.42,2.77,6.19,6.19,6.19
					C603.83,868.37,606.6,865.6,606.6,862.19z"/>
			</g>
			<circle class="st6" cx="714.5" cy="899.7" r="6.19"/>
			<path class="st6" d="M720.3,863.73c0-3.42-2.77-6.19-6.19-6.19c-3.42,0-6.19,2.77-6.19,6.19c0,3.42,2.77,6.19,6.19,6.19
				C717.53,869.92,720.3,867.15,720.3,863.73z"/>
		</g>
		<path class="st10" d="M714.89,798.37h7.73c17.94,0,32.49,14.54,32.49,32.49v0c0,17.94-14.55,32.49-32.49,32.49h-7.73"/>
		<path class="st10" d="M714.89,594.94h7.73c17.94,0,32.49,14.54,32.49,32.49v0c0,17.94-14.55,32.49-32.49,32.49h-7.73"/>
		<path class="st6" d="M721.08,492.45c0-3.42-2.77-6.19-6.19-6.19c-3.42,0-6.19,2.77-6.19,6.19c0,3.42,2.77,6.19,6.19,6.19
			C718.31,498.64,721.08,495.87,721.08,492.45z"/>
		<path class="st10" d="M714.12,492.45h7.73c17.94,0,32.49,14.54,32.49,32.49l0,0c0,17.94-14.55,32.49-32.49,32.49h-7.73"/>
	</g>
	<circle class="st3" cx="477.96" cy="335.94" r="6.3"/>
	<circle class="st3" cx="315.51" cy="335.94" r="6.3"/>
	<circle class="st3" cx="640.42" cy="335.94" r="6.3"/>
	<g>
		<path class="st3" d="M585.98,86.71V86.6c0-26.58-21.55-48.13-48.13-48.13h0c-11.04,0-21.22,3.72-29.34,9.98
			C500.86,20.52,475.31,0,444.96,0h-4.37c-32.94,0-60.23,24.17-65.12,55.73c-32,3.42-56.93,30.5-56.93,63.41v0
			c0,35.22,28.55,63.78,63.78,63.78h128.34v-0.2h70.5c26.58,0,48.13-21.55,48.13-48.13v0C629.28,109.65,610.29,89.13,585.98,86.71z"
			/>
		<g>
			<rect x="381.96" y="135.38" class="st0" width="183.9" height="23.09"/>
			<rect x="381.96" y="135.38" class="st9" width="120.51" height="23.09"/>
		</g>
		<g>
			<polyline class="st11" points="485.65,89.99 473.91,104.08 473.91,67.69 			"/>
			<line class="st11" x1="462.17" y1="89.99" x2="473.91" y2="104.08"/>
		</g>
		<polyline class="st11" points="457.28,108.97 457.28,114.06 490.54,114.06 490.54,108.97 		"/>
	</g>
	<line class="st12" x1="477.96" y1="176.24" x2="477.96" y2="335.94"/>
	<polyline class="st12" points="382.11,176.24 382.11,335.94 315.51,335.94 	"/>
	<polyline class="st12" points="573.81,176.24 573.81,335.94 640.42,335.94 	"/>
	<rect x="149.71" y="904.19" class="st13" width="17.54" height="4.27"/>
	<path class="st14" d="M167.18,904.19c0,0,7.61,7.32,0,14.93h-45.28c-0.22-0.9-1.18-5.29,1.45-9.64c2.12-3.51,5.3-4.89,6.35-5.29
		c7.23,0,14.46,0,21.69,0C151.38,904.19,159.23,908.78,167.18,904.19z"/>
	
		<rect x="115.43" y="919.12" transform="matrix(-1 -1.224647e-16 1.224647e-16 -1 283.9407 1842.4037)" class="st15" width="53.09" height="4.17"/>
	<path class="st14" d="M129.69,904.19c-7.09,0-12.84,5.75-12.84,12.84v2.09h6.94c-0.14-1.56-0.16-3.98,0.67-6.74
		C125.76,908.05,128.39,905.36,129.69,904.19z"/>
	<polygon class="st13" points="153.18,896.17 153.69,904.85 165.39,904.63 166.12,895.66 	"/>
	<path class="st15" d="M147.13,899.48h23.94l29.06-350l-2.21-91.35l-65.93-6.63c0,0-15.83,40.65-15.14,105.76
		C117.16,586,142.9,839.44,147.13,899.48z"/>
	
		<rect x="249.55" y="919.12" transform="matrix(-1 -1.224647e-16 1.224647e-16 -1 533.6798 1842.3837)" class="st15" width="34.58" height="4.15"/>
	<polygon class="st13" points="255.9,896.22 257.74,904.85 269.45,904.63 268.89,895.66 	"/>
	<path class="st14" d="M271.85,904.19c3.87,0,7.55,1.9,9.58,5.19c0.02,0.03,0.04,0.07,0.06,0.1c2.62,4.35,1.67,8.74,1.45,9.64h-7.8
		h-23.4c-2.95-2.58-2.2-7.82-1.14-10.63c0.98-2.59,3.47-4.3,6.24-4.3H271.85z"/>
	<path class="st15" d="M273.13,899.48c5.05-56.82,19.55-329.2,18.23-363.93c-1.59-41.92-19.08-84.04-19.08-84.04
		c-14.94,1.46-66.46,1.32-82.36,0c-1.29,16.75,3.83,47.75,4.3,67.62c0.41,17.41,4.23,15.45,5.91,30.36l53.92,350H273.13z"/>
	<path class="st15" d="M273.13,899.48c5.05-56.82,19.55-329.2,18.23-363.93c-1.59-41.92-19.08-84.04-19.08-84.04
		c-14.94,1.46-66.46,1.32-82.36,0c-1.29,16.75,3.83,47.75,4.3,67.62c0.41,17.41,4.23,15.45,5.91,30.36l53.92,350H273.13z"/>
	<line class="st16" x1="141.44" y1="905.99" x2="137.12" y2="910.31"/>
	<line class="st16" x1="147.5" y1="905.99" x2="143.18" y2="910.31"/>
	<path class="st14" d="M291.36,535.55c-1.59-41.92-19.08-84.04-19.08-84.04c-5.85,0.57-17.3,0.9-30.03,1l-13.08,5.66
		c0,0,24.67,60.49,26.72,135.49c1.38,50.35,3.96,207.77,5.51,305.83h11.72C278.18,842.66,292.68,570.28,291.36,535.55z"/>
	<path class="st17" d="M126.1,456.37"/>
	<path class="st3" d="M131.99,451.5c-1.53-20.55-1.94-44.15,0-70.15c2.77-37.15,9.98-77.66,17.4-103.52
		c19.28-3.53,38.37-3.98,57.9-8.96l49.95,12.24c6.32,27.16,11.8,59.08,14.35,95c1.96,27.52,1.88,52.82,0.7,75.38
		c-13.88,3.13-29.67,5.72-47.11,6.98C188.03,461.17,156.12,456.89,131.99,451.5z"/>
	<path class="st5" d="M257.23,281.12l-43.95-12.24c0.64,7.65,7.24,18.31,12.36,36.17c3.14,10.97,4.14,19.13,4.19,73.29
		c0.02,23.74-0.15,50.49-0.65,79.83c15.86-1.35,30.3-3.77,43.11-6.66c1.19-22.56,1.26-47.86-0.7-75.38
		C269.03,340.2,263.55,308.28,257.23,281.12z"/>
	<path class="st18" d="M209.3,288.07L209.3,288.07c-8.59,0-15.4-7.27-14.82-15.85l2.56-38.19h24.32l2.76,38.11
		C224.74,280.74,217.93,288.07,209.3,288.07z"/>
	<path class="st19" d="M222.54,250.45l-1.19-16.41h-24.32l-1.26,18.85c2.85,3.44,6.57,5.84,10.88,6.2
		C212.81,259.61,218.61,255.87,222.54,250.45z"/>
	<g>
		<path class="st4" d="M216.82,357.2H204c-3.06,0-5.55-2.48-5.55-5.55v-35.56c0-3.06,2.48-5.55,5.55-5.55h12.83
			c3.06,0,5.55,2.48,5.55,5.55v35.56C222.37,354.71,219.89,357.2,216.82,357.2z"/>
		<path class="st6" d="M207.55,324.37c0.11-1.58,1.48-2.77,3.06-2.66c1.58,0.11,2.77,1.48,2.66,3.06c-0.11,1.58-1.48,2.77-3.06,2.66
			C208.64,327.32,207.44,325.95,207.55,324.37z"/>
	</g>
	<path class="st18" d="M196.8,365.08l7.13-4.67c1.86-0.15,5.03-0.66,8.36-2.55c1.58-0.9,8.25-4.71,8.5-10.88
		c0.17-4.35-2.87-9.14-5.2-9c-0.78,0.05-1.41,0.64-1.88,1.26l-22.65,14.85L196.8,365.08z"/>
	<path class="st20" d="M223.48,207.62c0,0,6.6,5.49,6.81,21.46c0.21,15.97-12.09,14.9-12.09,14.9l-2.72-25.17L223.48,207.62z"/>
	<path class="st20" d="M195.18,200.57c0,0-6.6,6.56-6.81,25.62c-0.21,19.06,12.09,17.78,12.09,17.78l2.72-30.05L195.18,200.57z"/>
	<path class="st18" d="M198.61,210.31c-0.84,0.64-7.19,5.65-8.61,14.06c-1.87,11.17,5.38,25.95,16.64,26.91
		c10.78,0.92,20.43-11.21,20.99-22.53c0.5-10.03-6.04-21.52-15.25-22.99C205.93,204.72,200.34,208.99,198.61,210.31z"/>
	<path class="st18" d="M198.61,210.31c-0.84,0.64-7.19,5.65-8.61,14.06c-1.87,11.17,5.38,25.95,16.64,26.91
		c10.78,0.92,20.43-11.21,20.99-22.53c0.5-10.03-6.04-21.52-15.25-22.99C205.93,204.72,200.34,208.99,198.61,210.31z"/>
	<path class="st20" d="M189.2,201.41c-0.51,6.67,13.15,14.58,14.49,15.34c11.6,6.59,27.37,7.62,29.56,0.39
		c1.17-3.87-1.64-9.72-5.37-14.41c-1.4-1.76-2.94-3.37-4.43-4.64C210.11,186.79,189.8,193.54,189.2,201.41z"/>
	<path class="st18" d="M149.39,277.84c-6.13,1.22-11.3,5.34-13.84,11.05c-9.48,21.34-30.67,76.87-23.4,133.19
		c1.03,7.95,10.42,11.66,16.57,6.53c9.95-8.3,20.06-17.02,30.28-26.16c14.26-12.76,27.67-25.38,40.25-37.76
		c-4.89-6.32-3.3-4.27-8.19-10.59l-51.59,31l19.18-63.4L149.39,277.84z"/>
	<path class="st18" d="M197.84,349.99c1.87-12.07,3.59-14.76,4.87-14.79c1.76-0.04,4.63,4.93,2.92,9.49
		C204.43,347.88,201.31,350.02,197.84,349.99z"/>
	<path class="st18" d="M216.87,373.28l-5.01-6.9c-1.69-0.81-4.47-2.4-6.91-5.35c-1.16-1.4-6.05-7.33-4.09-13.18
		c1.38-4.13,5.93-7.53,8.05-6.57c0.71,0.32,1.09,1.1,1.31,1.84l15.91,21.92L216.87,373.28z"/>
	<path class="st18" d="M256.2,281.23L256.2,281.23c6.23,0.54,11.82,4.05,14.98,9.45c11.78,20.16,38.99,73.01,38,129.78
		c-0.14,8.01-9.06,12.74-15.75,8.32c-10.81-7.15-21.82-14.69-32.99-22.65c-15.59-11.1-30.31-22.17-44.18-33.07
		c4.16-6.82,2.81-4.61,6.97-11.43l58.79,26.97l-32.52-62.25L256.2,281.23z"/>
	<path class="st18" d="M221.25,358.8c2.53-11.95,1.88-15.08,0.7-15.56c-1.63-0.66-6.07,2.97-6.09,7.84
		C215.84,354.49,218,357.59,221.25,358.8z"/>
	<path class="st3" d="M153.59,341.12l7.45-19.18l-11.65-44.1c-6.13,1.22-11.3,5.34-13.84,11.05c-4.66,10.48-12.13,29.22-17.68,52.23
		H153.59z"/>
	<path class="st5" d="M271.18,290.68c-3.15-5.4-8.75-8.91-14.98-9.45l-6.7,45.12l7.71,14.76h37.49
		C286.61,318.63,277.01,300.66,271.18,290.68z"/>
	
		<rect x="245.91" y="326.87" transform="matrix(0.9944 -0.1058 0.1058 0.9944 -35.3607 29.181)" class="st5" width="22.87" height="42"/>
	<line class="st21" x1="35.12" y1="926.65" x2="890.6" y2="926.65"/>
	<circle class="st11" cx="216.72" cy="225.8" r="5.25"/>
	<line class="st11" x1="206.21" y1="226.07" x2="211.47" y2="226.07"/>
	<line class="st11" x1="195.7" y1="225.8" x2="189.42" y2="225.8"/>
	<line class="st11" x1="221.97" y1="226.07" x2="229.05" y2="226.07"/>
	<path class="st18" d="M195.68,231.48c0.25-2.88-1.89-5.41-4.77-5.66c-2.88-0.25-5.41,1.89-5.66,4.77
		c-0.25,2.88,1.89,5.41,4.77,5.66C192.9,236.49,195.43,234.36,195.68,231.48z"/>
	<circle class="st11" cx="200.95" cy="225.8" r="5.25"/>
	<path class="st18" d="M233.41,231.48c0.25-2.88-1.89-5.41-4.77-5.66c-2.88-0.25-5.41,1.89-5.66,4.77
		c-0.25,2.88,1.89,5.41,4.77,5.66C230.63,236.49,233.16,234.36,233.41,231.48z"/>
</g>
<g>
	<path class="st0" d="M1151.87,925.25c-62.01-76.69-71.72-136.49-68.19-177.97c7.75-91.03,81.34-117.94,78.89-215.58
		c-1.61-64.35-34.3-81.7-21.1-138.52c10.07-43.36,41.15-85.15,81.64-105.5c61.91-31.1,110.08,5.87,190.81,14.68
		c131.39,14.33,151.85-67.46,371.53-123.84c100.64-25.83,189.17-47.41,294.47-18.35c88.49,24.42,212.95,91.26,219.25,178.88
		c4.32,60.16-52.49,76.13-46.78,135.77c7.8,81.55,117.46,94.93,163.74,184.3c25.51,49.25,35.69,129.17-28.36,264.39
		C1975.38,924.75,1564.27,924.03,1151.87,925.25z"/>
	<line class="st22" x1="1108.53" y1="922.56" x2="2425.2" y2="922.56"/>
	<g>
		<path class="st23" d="M1792.63,136.92c-7.15-9.06-18.23-14.88-30.67-14.88c-12.44,0-23.52,5.82-30.67,14.88"/>
		<path class="st23" d="M1814.01,115.07c-12.73-14.39-31.33-23.46-52.05-23.46s-39.32,9.07-52.05,23.46"/>
		<path class="st23" d="M1835.5,93.12c-18.29-19.78-44.47-32.17-73.54-32.17s-55.24,12.39-73.54,32.17"/>
	</g>
	
		<ellipse transform="matrix(0.3827 -0.9239 0.9239 0.3827 941.0049 1725.8478)" class="st3" cx="1761.96" cy="158.77" rx="12.49" ry="12.49"/>
	<g>
		<polygon class="st4" points="1847.21,757.08 1695.29,757.08 1730.15,909 1882.07,909 		"/>
		<polygon class="st6" points="1825.42,757.08 1673.51,757.08 1708.37,909 1860.28,909 		"/>
		<path class="st3" d="M1893.5,919.11h-313.85l0,0c0-11.18,9.06-20.24,20.24-20.24h293.61V919.11z"/>
		<path class="st4" d="M1930.36,919.11H1828.8l0,0c0-11.18,9.06-20.24,20.24-20.24h81.32V919.11z"/>
		<polygon class="st4" points="1825.99,759.54 1777.31,757.08 1673.51,757.08 1688.79,823.69 1845.81,845.93 		"/>
		<path class="st4" d="M2209.4,796.7h-880.65c-27.53,0-49.85-22.32-49.85-49.85V266.19c0-27.53,22.32-49.86,49.85-49.86h880.65
			c27.53,0,49.85,22.32,49.85,49.86v480.66C2259.25,774.38,2236.93,796.7,2209.4,796.7z"/>
		<path class="st6" d="M2189.79,796.7h-880.65c-27.53,0-49.86-22.32-49.86-49.85V266.19c0-27.53,22.32-49.86,49.86-49.86h880.65
			c27.53,0,49.85,22.32,49.85,49.86v480.66C2239.64,774.38,2217.32,796.7,2189.79,796.7z"/>
		<rect x="1285.43" y="242.48" class="st3" width="928.07" height="424.6"/>
		<path class="st3" d="M1259.29,693.22v53.63c0,27.53,22.32,49.85,49.86,49.85h880.65c27.53,0,49.85-22.32,49.85-49.85v-53.63
			H1259.29z"/>
	</g>
	<path class="st0" d="M1940.53,446.68v-0.19c0-45.32-36.74-82.05-82.05-82.05h0c-18.83,0-36.17,6.35-50.02,17.01
		c-13.04-47.61-56.61-82.6-108.36-82.6h-7.46c-56.15,0-102.68,41.2-111.02,95.02c-54.56,5.83-97.06,52-97.06,108.11v0
		c0,60.05,48.68,108.74,108.74,108.74h218.81v-0.33h120.19c45.32,0,82.05-36.74,82.05-82.05v0
		C2014.36,485.78,1981.99,450.81,1940.53,446.68z"/>
	<g>
		<g>
			<rect x="1592.7" y="517.64" class="st24" width="313.54" height="39.36"/>
			<rect x="1592.7" y="517.64" class="st25" width="205.47" height="39.36"/>
		</g>
		<g>
			<g>
				<g>
					<polyline class="st26" points="1769.48,440.26 1749.47,464.27 1749.47,402.23 					"/>
				</g>
				<g>
					<line class="st26" x1="1729.45" y1="440.26" x2="1749.47" y2="464.27"/>
				</g>
			</g>
		</g>
		<polyline class="st26" points="1721.11,472.61 1721.11,481.28 1777.82,481.28 1777.82,472.61 		"/>
	</g>
	<g>
		<rect x="2085.34" y="594.22" class="st25" width="251.85" height="315.19"/>
		<g>
			<g>
				<path class="st5" d="M2340.32,661.4H2081.7c-5.39,0-9.77,4.38-9.77,9.77v36.4c0,5.38,4.38,9.77,9.77,9.77h258.62
					c5.39,0,9.77-4.38,9.77-9.77v-36.4C2350.08,665.78,2345.7,661.4,2340.32,661.4z"/>
				<path class="st6" d="M2311.2,712.61h-229.5c-2.79,0-5.04-2.26-5.04-5.04v-36.4c0-2.79,2.26-5.04,5.04-5.04h229.5
					c2.79,0,5.04,2.26,5.04,5.04v36.4C2316.24,710.35,2313.99,712.61,2311.2,712.61z"/>
				<line class="st27" x1="2085.34" y1="701.63" x2="2128" y2="701.63"/>
				<line class="st27" x1="2085.34" y1="689.37" x2="2128" y2="689.37"/>
				<line class="st27" x1="2085.34" y1="677.11" x2="2128" y2="677.11"/>
				<line class="st27" x1="2145.11" y1="701.63" x2="2187.77" y2="701.63"/>
				<line class="st27" x1="2145.11" y1="689.37" x2="2187.77" y2="689.37"/>
				<line class="st27" x1="2145.11" y1="677.11" x2="2187.77" y2="677.11"/>
				<line class="st27" x1="2205.39" y1="701.63" x2="2248.05" y2="701.63"/>
				<line class="st27" x1="2205.39" y1="689.37" x2="2248.05" y2="689.37"/>
				<line class="st27" x1="2205.39" y1="677.11" x2="2248.05" y2="677.11"/>
				<line class="st27" x1="2265.16" y1="701.63" x2="2307.82" y2="701.63"/>
				<line class="st27" x1="2265.16" y1="689.37" x2="2307.82" y2="689.37"/>
				<line class="st27" x1="2265.16" y1="677.11" x2="2307.82" y2="677.11"/>
				<rect x="2130.81" y="671.36" class="st6" width="11.24" height="11.24"/>
				<circle class="st4" cx="2136.43" cy="676.98" r="4.09"/>
				<rect x="2130.81" y="683.62" class="st6" width="11.24" height="11.24"/>
				<path class="st8" d="M2140.51,689.24c0-2.26-1.83-4.09-4.09-4.09s-4.09,1.83-4.09,4.09c0,2.26,1.83,4.09,4.09,4.09
					S2140.51,691.49,2140.51,689.24z"/>
				<path class="st9" d="M2140.51,701.5c0-2.26-1.83-4.09-4.09-4.09s-4.09,1.83-4.09,4.09c0,2.26,1.83,4.09,4.09,4.09
					S2140.51,703.76,2140.51,701.5z"/>
				<rect x="2191.09" y="695.88" class="st6" width="11.24" height="11.24"/>
				<path class="st9" d="M2200.79,701.5c0-2.26-1.83-4.09-4.09-4.09s-4.09,1.83-4.09,4.09c0,2.26,1.83,4.09,4.09,4.09
					S2200.79,703.76,2200.79,701.5z"/>
				<rect x="2191.09" y="683.62" class="st6" width="11.24" height="11.24"/>
				<path class="st9" d="M2200.79,689.24c0-2.26-1.83-4.09-4.09-4.09s-4.09,1.83-4.09,4.09c0,2.26,1.83,4.09,4.09,4.09
					S2200.79,691.49,2200.79,689.24z"/>
				<rect x="2191.09" y="671.36" class="st6" width="11.24" height="11.24"/>
				<circle class="st4" cx="2196.71" cy="676.98" r="4.09"/>
				<rect x="2250.86" y="695.88" class="st6" width="11.24" height="11.24"/>
				<path class="st8" d="M2260.56,701.5c0-2.26-1.83-4.09-4.09-4.09s-4.09,1.83-4.09,4.09c0,2.26,1.83,4.09,4.09,4.09
					S2260.56,703.76,2260.56,701.5z"/>
				<rect x="2250.86" y="683.62" class="st6" width="11.24" height="11.24"/>
				<path class="st8" d="M2260.56,689.24c0-2.26-1.83-4.09-4.09-4.09s-4.09,1.83-4.09,4.09c0,2.26,1.83,4.09,4.09,4.09
					S2260.56,691.49,2260.56,689.24z"/>
				<rect x="2250.86" y="671.36" class="st6" width="11.24" height="11.24"/>
				<circle class="st9" cx="2256.48" cy="676.98" r="4.09"/>
			</g>
			<path class="st6" d="M2335.91,701.75c0-2.26-1.83-4.09-4.09-4.09s-4.09,1.83-4.09,4.09c0,2.26,1.83,4.09,4.09,4.09
				S2335.91,704.01,2335.91,701.75z"/>
			<path class="st6" d="M2335.66,678c0-2.26-1.83-4.09-4.09-4.09c-2.26,0-4.09,1.83-4.09,4.09c0,2.26,1.83,4.09,4.09,4.09
				C2333.83,682.09,2335.66,680.26,2335.66,678z"/>
		</g>
		<g>
			<g>
				<path class="st5" d="M2340.32,593.97H2081.7c-5.39,0-9.77,4.38-9.77,9.77v36.4c0,5.39,4.38,9.77,9.77,9.77h258.62
					c5.39,0,9.77-4.38,9.77-9.77v-36.4C2350.08,598.35,2345.7,593.97,2340.32,593.97z"/>
				<path class="st6" d="M2311.2,645.18h-229.5c-2.79,0-5.04-2.26-5.04-5.04v-36.4c0-2.79,2.26-5.04,5.04-5.04h229.5
					c2.79,0,5.04,2.26,5.04,5.04v36.4C2316.24,642.92,2313.99,645.18,2311.2,645.18z"/>
				<line class="st27" x1="2085.34" y1="634.19" x2="2128" y2="634.19"/>
				<line class="st27" x1="2085.34" y1="621.93" x2="2128" y2="621.93"/>
				<line class="st27" x1="2085.34" y1="609.67" x2="2128" y2="609.67"/>
				<line class="st27" x1="2145.11" y1="634.19" x2="2187.77" y2="634.19"/>
				<line class="st27" x1="2145.11" y1="621.93" x2="2187.77" y2="621.93"/>
				<line class="st27" x1="2145.11" y1="609.67" x2="2187.77" y2="609.67"/>
				<line class="st27" x1="2205.39" y1="634.19" x2="2248.05" y2="634.19"/>
				<line class="st27" x1="2205.39" y1="621.93" x2="2248.05" y2="621.93"/>
				<line class="st27" x1="2205.39" y1="609.67" x2="2248.05" y2="609.67"/>
				<line class="st27" x1="2265.16" y1="634.19" x2="2307.82" y2="634.19"/>
				<line class="st27" x1="2265.16" y1="621.93" x2="2307.82" y2="621.93"/>
				<line class="st27" x1="2265.16" y1="609.67" x2="2307.82" y2="609.67"/>
				<rect x="2130.81" y="603.93" class="st6" width="11.24" height="11.24"/>
				<path class="st9" d="M2140.51,609.55c0-2.26-1.83-4.09-4.09-4.09s-4.09,1.83-4.09,4.09c0,2.26,1.83,4.09,4.09,4.09
					S2140.51,611.8,2140.51,609.55z"/>
				<rect x="2130.81" y="616.19" class="st6" width="11.24" height="11.24"/>
				<circle class="st9" cx="2136.43" cy="621.81" r="4.09"/>
				<path class="st9" d="M2140.51,634.07c0-2.26-1.83-4.09-4.09-4.09s-4.09,1.83-4.09,4.09c0,2.26,1.83,4.09,4.09,4.09
					S2140.51,636.32,2140.51,634.07z"/>
				<rect x="2191.09" y="628.45" class="st6" width="11.24" height="11.24"/>
				<path class="st9" d="M2200.79,634.07c0-2.26-1.83-4.09-4.09-4.09s-4.09,1.83-4.09,4.09c0,2.26,1.83,4.09,4.09,4.09
					S2200.79,636.32,2200.79,634.07z"/>
				<rect x="2191.09" y="616.19" class="st6" width="11.24" height="11.24"/>
				<circle class="st9" cx="2196.71" cy="621.81" r="4.09"/>
				<rect x="2191.09" y="603.93" class="st6" width="11.24" height="11.24"/>
				<path class="st9" d="M2200.79,609.55c0-2.26-1.83-4.09-4.09-4.09s-4.09,1.83-4.09,4.09c0,2.26,1.83,4.09,4.09,4.09
					S2200.79,611.8,2200.79,609.55z"/>
				<rect x="2250.86" y="628.45" class="st6" width="11.24" height="11.24"/>
				<path class="st8" d="M2260.56,634.07c0-2.26-1.83-4.09-4.09-4.09s-4.09,1.83-4.09,4.09c0,2.26,1.83,4.09,4.09,4.09
					S2260.56,636.32,2260.56,634.07z"/>
				<rect x="2250.86" y="616.19" class="st6" width="11.24" height="11.24"/>
				<circle class="st8" cx="2256.48" cy="621.81" r="4.09"/>
				<rect x="2250.86" y="603.93" class="st6" width="11.24" height="11.24"/>
				<path class="st9" d="M2260.56,609.55c0-2.26-1.83-4.09-4.09-4.09s-4.09,1.83-4.09,4.09c0,2.26,1.83,4.09,4.09,4.09
					S2260.56,611.8,2260.56,609.55z"/>
			</g>
			<path class="st6" d="M2335.91,634.32c0-2.26-1.83-4.09-4.09-4.09s-4.09,1.83-4.09,4.09c0,2.26,1.83,4.09,4.09,4.09
				S2335.91,636.58,2335.91,634.32z"/>
			<path class="st6" d="M2335.66,610.57c0-2.26-1.83-4.09-4.09-4.09c-2.26,0-4.09,1.83-4.09,4.09c0,2.26,1.83,4.09,4.09,4.09
				C2333.83,614.65,2335.66,612.82,2335.66,610.57z"/>
		</g>
		<g>
			<g>
				<path class="st5" d="M2340.32,796.26H2081.7c-5.39,0-9.77,4.38-9.77,9.77v36.4c0,5.38,4.38,9.77,9.77,9.77h258.62
					c5.39,0,9.77-4.38,9.77-9.77v-36.4C2350.08,800.65,2345.7,796.26,2340.32,796.26z"/>
				<path class="st6" d="M2311.2,847.47h-229.5c-2.79,0-5.04-2.26-5.04-5.04v-36.4c0-2.79,2.26-5.04,5.04-5.04h229.5
					c2.79,0,5.04,2.26,5.04,5.04v36.4C2316.24,845.21,2313.99,847.47,2311.2,847.47z"/>
				<line class="st27" x1="2085.34" y1="836.49" x2="2128" y2="836.49"/>
				<line class="st27" x1="2085.34" y1="824.23" x2="2128" y2="824.23"/>
				<line class="st27" x1="2085.34" y1="811.97" x2="2128" y2="811.97"/>
				<line class="st27" x1="2145.11" y1="836.49" x2="2187.77" y2="836.49"/>
				<line class="st27" x1="2145.11" y1="824.23" x2="2187.77" y2="824.23"/>
				<line class="st27" x1="2145.11" y1="811.97" x2="2187.77" y2="811.97"/>
				<line class="st27" x1="2205.39" y1="836.49" x2="2248.05" y2="836.49"/>
				<line class="st27" x1="2205.39" y1="824.23" x2="2248.05" y2="824.23"/>
				<line class="st27" x1="2205.39" y1="811.97" x2="2248.05" y2="811.97"/>
				<line class="st27" x1="2265.16" y1="836.49" x2="2307.82" y2="836.49"/>
				<line class="st27" x1="2265.16" y1="824.23" x2="2307.82" y2="824.23"/>
				<line class="st27" x1="2265.16" y1="811.97" x2="2307.82" y2="811.97"/>
				<rect x="2130.81" y="806.22" class="st6" width="11.24" height="11.24"/>
				<path class="st8" d="M2140.51,811.84c0-2.26-1.83-4.09-4.09-4.09s-4.09,1.83-4.09,4.09c0,2.26,1.83,4.09,4.09,4.09
					S2140.51,814.1,2140.51,811.84z"/>
				<rect x="2130.81" y="818.48" class="st6" width="11.24" height="11.24"/>
				<circle class="st9" cx="2136.43" cy="824.1" r="4.09"/>
				<circle class="st9" cx="2136.43" cy="836.36" r="4.09"/>
				<rect x="2191.09" y="830.74" class="st6" width="11.24" height="11.24"/>
				<circle class="st9" cx="2196.71" cy="836.36" r="4.09"/>
				<rect x="2191.09" y="818.48" class="st6" width="11.24" height="11.24"/>
				<circle class="st9" cx="2196.71" cy="824.1" r="4.09"/>
				<rect x="2191.09" y="806.22" class="st6" width="11.24" height="11.24"/>
				<path class="st4" d="M2200.79,811.84c0-2.26-1.83-4.09-4.09-4.09s-4.09,1.83-4.09,4.09c0,2.26,1.83,4.09,4.09,4.09
					S2200.79,814.1,2200.79,811.84z"/>
				<rect x="2250.86" y="830.74" class="st6" width="11.24" height="11.24"/>
				<circle class="st8" cx="2256.48" cy="836.36" r="4.09"/>
				<rect x="2250.86" y="818.48" class="st6" width="11.24" height="11.24"/>
				<circle class="st8" cx="2256.48" cy="824.1" r="4.09"/>
				<rect x="2250.86" y="806.22" class="st6" width="11.24" height="11.24"/>
				<path class="st9" d="M2260.56,811.84c0-2.26-1.83-4.09-4.09-4.09s-4.09,1.83-4.09,4.09c0,2.26,1.83,4.09,4.09,4.09
					S2260.56,814.1,2260.56,811.84z"/>
			</g>
			<path class="st6" d="M2335.91,836.62c0-2.26-1.83-4.09-4.09-4.09s-4.09,1.83-4.09,4.09c0,2.26,1.83,4.09,4.09,4.09
				S2335.91,838.87,2335.91,836.62z"/>
			<path class="st6" d="M2335.66,812.86c0-2.26-1.83-4.09-4.09-4.09c-2.26,0-4.09,1.83-4.09,4.09c0,2.26,1.83,4.09,4.09,4.09
				C2333.83,816.95,2335.66,815.12,2335.66,812.86z"/>
		</g>
		<g>
			<g>
				<path class="st5" d="M2340.32,728.83H2081.7c-5.39,0-9.77,4.38-9.77,9.77V775c0,5.38,4.38,9.77,9.77,9.77h258.62
					c5.39,0,9.77-4.38,9.77-9.77v-36.4C2350.08,733.21,2345.7,728.83,2340.32,728.83z"/>
				<path class="st6" d="M2311.2,780.04h-229.5c-2.79,0-5.04-2.26-5.04-5.04v-36.4c0-2.79,2.26-5.04,5.04-5.04h229.5
					c2.79,0,5.04,2.26,5.04,5.04V775C2316.24,777.78,2313.99,780.04,2311.2,780.04z"/>
				<line class="st27" x1="2085.34" y1="769.06" x2="2128" y2="769.06"/>
				<line class="st27" x1="2085.34" y1="756.8" x2="2128" y2="756.8"/>
				<line class="st27" x1="2085.34" y1="744.54" x2="2128" y2="744.54"/>
				<line class="st27" x1="2145.11" y1="769.06" x2="2187.77" y2="769.06"/>
				<line class="st27" x1="2145.11" y1="756.8" x2="2187.77" y2="756.8"/>
				<line class="st27" x1="2145.11" y1="744.54" x2="2187.77" y2="744.54"/>
				<line class="st27" x1="2205.39" y1="769.06" x2="2248.05" y2="769.06"/>
				<line class="st27" x1="2205.39" y1="756.8" x2="2248.05" y2="756.8"/>
				<line class="st27" x1="2205.39" y1="744.54" x2="2248.05" y2="744.54"/>
				<line class="st27" x1="2265.16" y1="769.06" x2="2307.82" y2="769.06"/>
				<line class="st27" x1="2265.16" y1="756.8" x2="2307.82" y2="756.8"/>
				<line class="st27" x1="2265.16" y1="744.54" x2="2307.82" y2="744.54"/>
				<rect x="2130.81" y="738.79" class="st6" width="11.24" height="11.24"/>
				<circle class="st9" cx="2136.43" cy="744.41" r="4.09"/>
				<rect x="2130.81" y="751.05" class="st6" width="11.24" height="11.24"/>
				<path class="st4" d="M2140.51,756.67c0-2.26-1.83-4.09-4.09-4.09s-4.09,1.83-4.09,4.09c0,2.26,1.83,4.09,4.09,4.09
					S2140.51,758.93,2140.51,756.67z"/>
				<circle class="st9" cx="2136.43" cy="768.93" r="4.09"/>
				<rect x="2191.09" y="763.31" class="st6" width="11.24" height="11.24"/>
				<circle class="st9" cx="2196.71" cy="768.93" r="4.09"/>
				<rect x="2191.09" y="751.05" class="st6" width="11.24" height="11.24"/>
				<path class="st9" d="M2200.79,756.67c0-2.26-1.83-4.09-4.09-4.09s-4.09,1.83-4.09,4.09c0,2.26,1.83,4.09,4.09,4.09
					S2200.79,758.93,2200.79,756.67z"/>
				<rect x="2191.09" y="738.79" class="st6" width="11.24" height="11.24"/>
				<circle class="st4" cx="2196.71" cy="744.41" r="4.09"/>
				<rect x="2250.86" y="763.31" class="st6" width="11.24" height="11.24"/>
				<circle class="st9" cx="2256.48" cy="768.93" r="4.09"/>
				<rect x="2250.86" y="751.05" class="st6" width="11.24" height="11.24"/>
				<path class="st4" d="M2260.56,756.67c0-2.26-1.83-4.09-4.09-4.09s-4.09,1.83-4.09,4.09c0,2.26,1.83,4.09,4.09,4.09
					S2260.56,758.93,2260.56,756.67z"/>
				<rect x="2250.86" y="738.79" class="st6" width="11.24" height="11.24"/>
				<circle class="st9" cx="2256.48" cy="744.41" r="4.09"/>
			</g>
			<path class="st6" d="M2335.91,769.19c0-2.26-1.83-4.09-4.09-4.09s-4.09,1.83-4.09,4.09c0,2.26,1.83,4.09,4.09,4.09
				S2335.91,771.44,2335.91,769.19z"/>
			<path class="st6" d="M2335.66,745.43c0-2.26-1.83-4.09-4.09-4.09c-2.26,0-4.09,1.83-4.09,4.09c0,2.26,1.83,4.09,4.09,4.09
				C2333.83,749.52,2335.66,747.69,2335.66,745.43z"/>
		</g>
		<path class="st28" d="M2332.08,769.7h5.11c11.85,0,21.46,9.61,21.46,21.46v0c0,11.85-9.61,21.46-21.46,21.46h-5.11"/>
		<g>
			<g>
				<path class="st5" d="M2340.32,863.19H2081.7c-5.39,0-9.77,4.38-9.77,9.77v36.4c0,5.38,4.38,9.77,9.77,9.77h258.62
					c5.39,0,9.77-4.38,9.77-9.77v-36.4C2350.08,867.57,2345.7,863.19,2340.32,863.19z"/>
				<path class="st6" d="M2311.2,914.39h-229.5c-2.79,0-5.04-2.26-5.04-5.04v-36.4c0-2.79,2.26-5.04,5.04-5.04h229.5
					c2.79,0,5.04,2.26,5.04,5.04v36.4C2316.24,912.14,2313.99,914.39,2311.2,914.39z"/>
				<line class="st27" x1="2085.34" y1="903.41" x2="2128" y2="903.41"/>
				<line class="st27" x1="2085.34" y1="891.15" x2="2128" y2="891.15"/>
				<line class="st27" x1="2085.34" y1="878.89" x2="2128" y2="878.89"/>
				<line class="st27" x1="2145.11" y1="903.41" x2="2187.77" y2="903.41"/>
				<line class="st27" x1="2145.11" y1="891.15" x2="2187.77" y2="891.15"/>
				<line class="st27" x1="2145.11" y1="878.89" x2="2187.77" y2="878.89"/>
				<line class="st27" x1="2205.39" y1="903.41" x2="2248.05" y2="903.41"/>
				<line class="st27" x1="2205.39" y1="891.15" x2="2248.05" y2="891.15"/>
				<line class="st27" x1="2205.39" y1="878.89" x2="2248.05" y2="878.89"/>
				<line class="st27" x1="2265.16" y1="903.41" x2="2307.82" y2="903.41"/>
				<line class="st27" x1="2265.16" y1="891.15" x2="2307.82" y2="891.15"/>
				<line class="st27" x1="2265.16" y1="878.89" x2="2307.82" y2="878.89"/>
				<rect x="2130.81" y="873.14" class="st6" width="11.24" height="11.24"/>
				<path class="st9" d="M2140.51,878.76c0-2.26-1.83-4.09-4.09-4.09s-4.09,1.83-4.09,4.09c0,2.26,1.83,4.09,4.09,4.09
					S2140.51,881.02,2140.51,878.76z"/>
				<rect x="2130.81" y="885.4" class="st6" width="11.24" height="11.24"/>
				<path class="st9" d="M2140.51,891.02c0-2.26-1.83-4.09-4.09-4.09s-4.09,1.83-4.09,4.09c0,2.26,1.83,4.09,4.09,4.09
					S2140.51,893.28,2140.51,891.02z"/>
				<circle class="st9" cx="2136.43" cy="903.28" r="4.09"/>
				<rect x="2191.09" y="897.66" class="st6" width="11.24" height="11.24"/>
				<circle class="st9" cx="2196.71" cy="903.28" r="4.09"/>
				<rect x="2191.09" y="885.4" class="st6" width="11.24" height="11.24"/>
				<path class="st9" d="M2200.79,891.02c0-2.26-1.83-4.09-4.09-4.09s-4.09,1.83-4.09,4.09c0,2.26,1.83,4.09,4.09,4.09
					S2200.79,893.28,2200.79,891.02z"/>
				<rect x="2191.09" y="873.14" class="st6" width="11.24" height="11.24"/>
				<path class="st9" d="M2200.79,878.76c0-2.26-1.83-4.09-4.09-4.09s-4.09,1.83-4.09,4.09c0,2.26,1.83,4.09,4.09,4.09
					S2200.79,881.02,2200.79,878.76z"/>
				<rect x="2250.86" y="897.66" class="st6" width="11.24" height="11.24"/>
				<circle class="st8" cx="2256.48" cy="903.28" r="4.09"/>
				<rect x="2250.86" y="885.4" class="st6" width="11.24" height="11.24"/>
				<path class="st8" d="M2260.56,891.02c0-2.26-1.83-4.09-4.09-4.09s-4.09,1.83-4.09,4.09c0,2.26,1.83,4.09,4.09,4.09
					S2260.56,893.28,2260.56,891.02z"/>
				<rect x="2250.86" y="873.14" class="st6" width="11.24" height="11.24"/>
				<path class="st9" d="M2260.56,878.76c0-2.26-1.83-4.09-4.09-4.09s-4.09,1.83-4.09,4.09c0,2.26,1.83,4.09,4.09,4.09
					S2260.56,881.02,2260.56,878.76z"/>
			</g>
			<path class="st6" d="M2335.91,903.54c0-2.26-1.83-4.09-4.09-4.09s-4.09,1.83-4.09,4.09c0,2.26,1.83,4.09,4.09,4.09
				S2335.91,905.8,2335.91,903.54z"/>
			<path class="st6" d="M2335.66,879.78c0-2.26-1.83-4.09-4.09-4.09c-2.26,0-4.09,1.83-4.09,4.09c0,2.26,1.83,4.09,4.09,4.09
				C2333.83,883.87,2335.66,882.04,2335.66,879.78z"/>
		</g>
		<path class="st28" d="M2332.08,836.62h5.11c11.85,0,21.46,9.61,21.46,21.46l0,0c0,11.85-9.61,21.46-21.46,21.46h-5.11"/>
		<path class="st28" d="M2332.08,702.26h5.11c11.85,0,21.46,9.61,21.46,21.46l0,0c0,11.85-9.61,21.46-21.46,21.46h-5.11"/>
		<circle class="st6" cx="2332.08" cy="634.58" r="4.09"/>
		<path class="st28" d="M2331.57,634.58h5.11c11.85,0,21.46,9.61,21.46,21.46v0c0,11.85-9.61,21.46-21.46,21.46h-5.11"/>
	</g>
	<g>
		<path class="st13" d="M1935.56,535.59l0.14-13.51l-13.42-0.65l-0.17,15.09c-0.3,2.73-3.63,4.89-6.24,5.75l-4.71,1.56
			c0.49,4.17,4.76,13.68,8.84,14.3c7.73,1.17,17.31-11.9,21.68-15.93l0,0C1938.8,541.4,1935.75,538.58,1935.56,535.59z"/>
		<path class="st29" d="M1915.88,542.28l-4.71,1.56c0.02,0.21,0.06,0.43,0.1,0.67h28.17c0.85-0.91,1.6-1.7,2.25-2.3
			c-2.17-0.6-4.43-2.35-5.5-4.45h-14.42C1920.78,539.89,1918.08,541.55,1915.88,542.28z"/>
		<path class="st30" d="M1933.77,538.87h-11.55c-0.55,0-1-0.45-1-1l0,0c0-0.55,0.45-1,1-1h11.55c0.55,0,1,0.45,1,1l0,0
			C1934.77,538.43,1934.32,538.87,1933.77,538.87z"/>
		<path class="st18" d="M1810.05,546.85c-0.36-0.37-0.73-0.73-1.09-1.1c-0.4-0.41-0.81-0.81-1.26-1.17
			c-2.04,0.17-4.23-0.77-5.66-2.24c-0.58-0.6-1.05-1.3-1.52-1.99c-0.22-0.32-0.43-0.65-0.56-1.01c-0.13-0.36-0.16-0.78,0-1.13
			c0.21-0.48,0.71-0.74,1.13-1.06c0.42-0.32,0.8-0.83,0.63-1.32c-0.11-0.32-0.41-0.52-0.68-0.73c-0.71-0.55-1.97-1.93-2.78-3.18
			c-0.36-0.55,0.27-1.21,0.84-0.89c3,1.65,6.64,4.3,8.8,6.3c-0.08-0.34-0.23-0.84-0.56-1.39c-0.36-0.6-0.81-1.03-1.01-1.23
			c-0.74-0.71-1.11-0.78-1.14-1.14c-0.03-0.39,0.35-0.84,0.78-0.99c0.74-0.25,1.55,0.43,2.64,1.34c0.71,0.6,1.4,1.18,1.97,2.22
			c0.5,0.9,0.83,1.49,0.74,2.25c-0.04,0.39-0.18,0.73-0.03,1.19c0.11,0.33,0.38,0.59,0.64,0.82c0.68,0.62,1.36,1.24,2.04,1.86
			C1812.7,543.78,1811.35,545.33,1810.05,546.85z"/>
		<path class="st13" d="M1966.47,902.34c0,0,0.2,3.14-0.63,5.33c-0.82,2.19,5.81,2.58,5.91,2.51c0.1-0.06,3.13-2.51,3.13-2.51
			s-0.92-2.75-0.78-5.73"/>
		<rect x="1891.06" y="907.67" class="st13" width="10.14" height="2.47"/>
		<path class="st18" d="M2014.5,672.56l1.55,4.9c0,0,1.87,1.49,2.93,4.38c0.2,0.55,1.76,4.75-0.23,9.08
			c-0.9,1.95-2.76,4.46-4.04,4.13c-1.39-0.35-2.18-4.05-2.15-3.97l0,0l-4.93-15.57L2014.5,672.56z"/>
		<path class="st18" d="M2009.13,680.2c-3.15,5.94-3.28,7.69-2.72,8.12c0.76,0.6,3.66-0.65,4.41-3.23
			C2011.34,683.3,2010.66,681.33,2009.13,680.2z"/>
		<path class="st31" d="M1954.68,543.27c0,0,41.21,34.96,61.1,130.21l-8.84,2.33c0,0-24.24-51.03-27.48-61.13l-37.79-62.65
			L1954.68,543.27z"/>
		<path class="st15" d="M1961.42,632.14c0,0,23.24,18.28,23.13,67.35c-0.05,21.98-10.44,202.45-10.44,202.45l-7.63,0.4
			c-13.54-68.71-23.33-136.24-34.51-206.12c-1.6-0.23-9.8-0.83-11.22-2.5c-3.12-3.66-0.08-10.05-0.14-12.86
			c-0.26-11.24-0.33-36.94,0.39-46.41C1929.98,635.2,1952.97,632.96,1961.42,632.14z"/>
		<path class="st15" d="M1892.82,635.36c0,0-12.09,23.24-10.75,65.69c0.58,18.42,11,201.98,11,201.98c1.33,0.24,2.65,0.48,3.98,0.73
			c1.15-0.28,3.19,0.32,3.46-0.83c16.45-70.39,26.17-135.69,31.46-206.72c-1.21-14.96-4.99-46.66-6.2-61.62L1892.82,635.36z"/>
		<path class="st14" d="M1961.7,692c-4.03,36.87,6.01,151.58,8.78,210.13l3.62-0.19c0,0,10.39-180.47,10.44-202.45
			c0.11-49.08-23.13-67.35-23.13-67.35c-3.4,0.33-9.15,0.89-15.39,1.39C1953.81,648.03,1964.65,665.09,1961.7,692z"/>
		<path class="st29" d="M1892.82,635.36c-1.38-17.8-1.46-38.63,1.44-61.65c0.95-7.52,2.14-14.69,3.5-21.47
			c0.53-2.64,2.44-4.78,4.99-5.63c2.53-0.83,5.05-1.67,7.58-2.5c11.39-3.76,23.63-4.06,35.18-0.84l0,0c3.9,1.09,6.86,4.25,7.71,8.21
			c2.43,11.38,4.56,23.97,6.04,37.66c1.7,15.66,2.25,30.1,2.15,43c-8.2,2.25-18.28,4.3-29.89,5.16
			C1916.17,638.44,1902.94,637.14,1892.82,635.36z"/>
		<path class="st31" d="M1953.22,551.45c-0.84-3.95-3.81-7.1-7.7-8.18c0.76,1.94,1.53,3.87,2.29,5.81c-0.26,1.97-0.52,3.93-0.79,5.9
			c-1.81,1-4.59,2.86-6.59,6.07c-6.17,9.9,1.06,22.54,4.82,39.73c1.69,7.75,3.35,19.55,1.91,34.9c2.27-0.57,4.54-1.13,6.82-1.7
			c2.48-0.62,4.97-1.23,7.45-1.85c0.1-12.91-0.46-27.34-2.15-43C1957.78,575.44,1955.65,562.84,1953.22,551.45z"/>
		<path class="st13" d="M1922.24,507.61c-0.48,0.35-4.15,3.09-5.07,7.82c-1.22,6.29,2.66,14.75,9.01,15.46
			c6.08,0.68,11.72-6.04,12.2-12.43c0.43-5.66-3.1-12.26-8.28-13.23C1926.46,504.56,1923.24,506.89,1922.24,507.61z"/>
		<circle class="st13" cx="1938.72" cy="517.08" r="2.96"/>
		<path class="st8" d="M1988.62,604.83c8.17-9.43,14.61-24.96,8.39-34.8c-5.98-9.45-18.49-5.45-24.1-14.89
			c-5.69-9.55,4.64-17.84,3.12-30.91c-2.45-21.08-34.07-40.54-54.03-31.57c-10.65,4.79-18.97,18.11-17.43,28.48
			c1.84,12.41,16.58,12.16,19.23,25.59c2.56,12.91-9.84,19.37-5.89,28.88c4.75,11.42,24.4,6.32,30.71,18.49
			c5.7,11-6.55,22.47-0.89,27.27C1953.98,626.67,1976.39,618.95,1988.62,604.83z"/>
		<path class="st29" d="M1913.95,565.86c0,0-27.78,16.68-47.01,21.36c-18.37,4.47-57.32-40.52-57.32-40.52l4.25-4.92
			c0,0,25.41,11.71,46.58,28.35c0,0,22.6-9.7,41.86-22.83L1913.95,565.86z"/>
		<path class="st8" d="M1901.15,907.67c0,0,4.4,4.23,0,8.63h-26.17c-0.13-0.52-0.68-3.06,0.84-5.57c1.22-2.03,3.07-2.82,3.67-3.06
			c4.18,0,8.36,0,12.53,0C1892.02,907.67,1896.56,910.32,1901.15,907.67z"/>
		
			<rect x="1871.25" y="916.3" transform="matrix(-1 -1.224647e-16 1.224647e-16 -1 3773.1716 1833.978)" class="st0" width="30.68" height="1.38"/>
		<path class="st0" d="M1879.49,907.67c-4.1,0-7.42,3.32-7.42,7.42v1.21h4.01c-0.08-0.9-0.09-2.3,0.39-3.9
			C1877.22,909.9,1878.74,908.35,1879.49,907.67z"/>
		<polygon class="st13" points="1893.06,903.04 1893.36,908.05 1900.12,907.92 1900.54,902.74 		"/>
		<rect x="1963.91" y="916.22" class="st0" width="12.69" height="1.37"/>
		<path class="st8" d="M1976.58,912.43c-0.22-2.28-1.14-3.93-1.69-4.77c0,0-4.49,2.63-9.04,0c-0.53,0.67-1.75,2.41-1.91,4.93
			c-0.1,1.59,0.27,2.87,0.56,3.62c3.92,0,7.84,0,11.76,0C1976.49,915.36,1976.73,914.04,1976.58,912.43z"/>
		<path class="st32" d="M1860.17,569.84c-1.16,1.89-1.5,4.25-0.92,6.39"/>
		<path class="st33" d="M1886.27,907.94c-0.43,0.69-0.86,1.37-1.3,2.06"/>
		<path class="st33" d="M1888.76,908.13c-0.37,0.73-0.73,1.46-1.1,2.19"/>
		<rect x="1891.54" y="898.02" class="st34" width="10.05" height="5.35"/>
		<rect x="1965.23" y="898.02" class="st34" width="10.05" height="5.35"/>
		<rect x="1897.32" y="667.53" class="st14" width="22.42" height="2.43"/>
		<path class="st35" d="M1999.29,657.86"/>
		<path class="st35" d="M1999.91,659.84"/>
		<path class="st36" d="M1921.23,698.61c4.45-0.49,8.57-2.03,12.69-3.58c2.58,2.06,6.19,2.58,9.43,3.2"/>
		<path class="st14" d="M1924.78,698.13c0,0-0.93,30.31,0.33,67.56c0,0,6.23-54.05,7.52-71.43L1924.78,698.13z"/>
	</g>
	<g>
		<path class="st6" d="M1349.97,698.16h-119.49v-75.35c0-2.32,1.88-4.2,4.2-4.2h111.09c2.32,0,4.2,1.88,4.2,4.2V698.16z"/>
		<rect x="1233.69" y="621.62" class="st0" width="113.17" height="71.8"/>
		<path class="st4" d="M1284.72,695.38h-26.77h-32.02l0,0c0,3.96,0,7.16,9.49,7.16h22.53h26.77h60.33c9.49,0,9.49-3.21,9.49-7.16
			l0,0H1284.72z"/>
		<circle class="st37" cx="1317.86" cy="698.96" r="1.91"/>
		<rect x="1271.75" y="642.49" class="st38" width="42.66" height="4.92"/>
		<path class="st38" d="M1285.47,646.85h-19.42v-3.42c0-2.18,1.77-3.95,3.95-3.95h11.52c2.18,0,3.95,1.77,3.95,3.95V646.85z"/>
		<rect x="1267.69" y="644.34" class="st24" width="45.15" height="2.51"/>
		<polygon class="st20" points="1314.41,677.29 1266.04,677.29 1265.16,646.85 1315.3,646.85 		"/>
		<rect x="1352.82" y="714.15" class="st3" width="5.61" height="204.97"/>
		<path class="st19" d="M1302.7,698.08l-6.63,2.76c0,0-5.78,8.74-18.39,5.41s-0.99-8.6-0.99-8.6l21.06-8.78L1302.7,698.08z"/>
		<path class="st6" d="M1293.57,702.52c0-0.02,0.01-0.03,0.01-0.05c0-2.5-4.3-4.53-9.6-4.53s-9.6,2.03-9.6,4.53
			c0,0.02,0.01,0.03,0.01,0.05H1293.57z"/>
		<polygon class="st19" points="1261.04,902.14 1260.38,907.03 1268.49,907.3 1268.93,901.83 		"/>
		<path class="st14" d="M1268.47,907.03c0,0,4.65,4.47,0,9.12h-27.65c-0.13-0.55-0.72-3.23,0.88-5.89c1.29-2.14,3.24-2.98,3.88-3.23
			c4.41,0,8.83,0,13.24,0C1258.82,907.03,1263.62,909.84,1268.47,907.03z"/>
		
			<rect x="1236.87" y="916.15" transform="matrix(-1 -1.224647e-16 1.224647e-16 -1 2506.1545 1835.2618)" class="st25" width="32.41" height="2.97"/>
		<path class="st14" d="M1245.58,907.03c-4.33,0-7.84,3.51-7.84,7.84v1.28h4.23c-0.09-0.95-0.1-2.43,0.41-4.12
			C1243.18,909.39,1244.79,907.75,1245.58,907.03z"/>
		<path class="st31" d="M1401.84,651.59V615c-5.66,7.17-12.25,15.72-18.01,23.68c-8.95,12.38-21.66,21.51-36.2,26.18
			c-1.91,0.61-3.84,1.26-5.79,1.95c-18.08,6.36-32.76,14.91-44.49,22.22l3.52,9.8c0,0,75.15-14.07,114-47.25H1401.84z"/>
		<rect x="1413.85" y="714.15" class="st3" width="5.61" height="204.97"/>
		<rect x="1224.11" y="714.15" class="st3" width="5.61" height="204.97"/>
		<rect x="1386.15" y="787.92" class="st25" width="8.94" height="129.71"/>
		<rect x="1385.01" y="832.57" class="st15" width="11.21" height="77.61"/>
		<path class="st15" d="M1433.87,909.34v0.84h-86.51v-0.84c0-2.63,2.13-4.76,4.76-4.76h76.98
			C1431.74,904.57,1433.87,906.71,1433.87,909.34z"/>
		<path class="st14" d="M1353.5,912.98c0-3.39-2.75-6.14-6.14-6.14c-3.39,0-6.14,2.75-6.14,6.14s2.75,6.14,6.14,6.14
			C1350.75,919.11,1353.5,916.37,1353.5,912.98z"/>
		<circle class="st14" cx="1390.62" cy="912.98" r="6.14"/>
		<path class="st14" d="M1440.01,912.98c0-3.39-2.75-6.14-6.14-6.14s-6.14,2.75-6.14,6.14s2.75,6.14,6.14,6.14
			S1440.01,916.37,1440.01,912.98z"/>
		<g>
			<g>
				<g>
					<path class="st14" d="M1405.97,692.83l-14.16-2.24c-0.41,0.75-0.81,1.5-1.2,2.24H1405.97z"/>
				</g>
				<g>
					<path class="st14" d="M1317.99,739.73c-3.81,0.82-7.46,1.62-10.85,2.4c-11.94,2.74-24.01,11.55-26.21,23.6
						c-11.33,62.06-20.63,136.44-20.63,136.44l10.22-0.35c11.13-24.75,33.64-75.04,46.99-118.44l0.47,0.08V739.73z"/>
				</g>
			</g>
		</g>
		<path class="st14" d="M1449.67,735.43c0.44-8.6-5.31-36.54-5.31-36.54l-52.54-8.3c-12.54,22.85-12.62,39.46-12.62,39.46
			c-14.8,0.85-35.81,4.45-54.28,8.23l35.34,52.11c0.42,0.07,0.83,0.13,1.24,0.19h51.62
			C1459.64,779.66,1449.67,735.43,1449.67,735.43z"/>
		<rect x="1150.49" y="702.52" class="st38" width="282.26" height="11.64"/>
		<polygon class="st18" points="1394.12,569.22 1395.71,597.26 1377.65,598.33 1376.24,568.9 		"/>
		<path class="st19" d="M1386.38,569.08l-10.15-0.18l0.55,11.48C1381.27,578.75,1384.9,574.14,1386.38,569.08z"/>
		<path class="st15" d="M1285.67,741.09c20.71-3.87,48.94-6.98,67.01-7.96c0,0,3.13-28.33,7.13-40.31l61,6.59
			c0,0,6.54,29.6,6.1,38.18c0,0,3.57,35.95-31.74,50.99h-90.43l-4.51-0.73c-0.05,0.24-0.09,0.49-0.14,0.73
			c-4.05,21.92-19.44,103.55-21.54,113.25l-10.48,0.24c0,0-5.24-89.65-6.78-113.49c-0.75-11.5-1.37-10.15-1.78-20.65
			C1258.94,753.15,1271.13,743.81,1285.67,741.09z"/>
		<path class="st3" d="M1365.96,643.4c-0.46,1.93-0.89,4.98-0.14,8.54c1.68,7.92,7.91,12.1,9.39,13.03
			c-3.28,3.45-5.58,3.52-6.58,3.4c-4.92-0.61-9.11-9.65-9.42-23c0.11-0.32,0.65-1.78,2.2-2.51
			C1362.84,642.17,1364.6,642.39,1365.96,643.4z"/>
		<path class="st18" d="M1274.86,695.7c-2.12,0.61-4.25,1.22-6.37,1.83c-2.89,2.53-5.67,3.84-7.47,4.53
			c-2.22,0.85-5.71,2.19-9.76,1.26c-2.28-0.52-5.55-1.95-5.51-3.51c0.02-0.69,0.68-1.22,4.38-3.21c3.11-1.67,4.66-2.51,6.36-3.26
			c4.51-1.98,6.76-2.98,9.03-3.59c2.69-0.73,6.94-1.49,12.52-0.86C1276.99,691.16,1275.93,693.43,1274.86,695.7z"/>
		<path class="st29" d="M1336.54,678.71c4.26-0.28,7.96-0.32,10.74-0.01c0,0-5.29-47.97,1.61-61.66
			c6.9-13.69,13.73-19.48,13.73-19.48s24.02,58.49,12.98,88.25c-3.02,8.15-12.29,12.73-24.14,15.07
			C1345.29,694.91,1340.05,686.63,1336.54,678.71z"/>
		<path class="st29" d="M1354.53,718.92c0,0,16.99,8.82,93.71,1.57c0,0-12.22-81.06-36.26-121.8c-3.67-6.22-10.64-9.72-17.83-9
			c-10.2,1.02-24.8,3.36-32.46,8.63C1349.18,606.96,1354.53,718.92,1354.53,718.92z"/>
		<path class="st14" d="M1323.66,790.59h130.57c1.03,0,1.86-0.83,1.86-1.86v-4.34c0-1.03-0.83-1.86-1.86-1.86h-130.57
			c-1.03,0-1.86,0.83-1.86,1.86v4.34C1321.8,789.75,1322.63,790.59,1323.66,790.59z"/>
		<path class="st31" d="M1411.98,598.7c-3.67-6.22-10.64-9.72-17.83-9c-0.13,0.01-0.26,0.03-0.4,0.04
			c3.58,10.61,7.03,21.65,10.29,33.13c10.19,35.83,16.72,69.33,20.86,99.48c7.09-0.44,14.84-1.05,23.33-1.85
			C1448.24,720.5,1436.02,639.44,1411.98,598.7z"/>
		<path class="st14" d="M1400.52,731.3h56.61c1.89,0,3.48-1.43,3.68-3.31l3.77-35.84c0.23-2.18-1.48-4.08-3.68-4.08h-56.61
			c-1.89,0-3.48,1.43-3.68,3.31l-3.77,35.84C1396.61,729.4,1398.33,731.3,1400.52,731.3z"/>
		<polygon class="st25" points="1420.77,790.59 1431.03,790.59 1439.46,709.68 1429.2,709.68 		"/>
		<path class="st18" d="M1375.28,551.51c-0.57,0.48-4.91,4.26-5.62,10.29c-0.94,8,4.73,18.25,12.76,18.54
			c7.69,0.28,14.12-8.68,14.13-16.74c0-7.14-5.04-15.08-11.63-15.8C1380.29,547.28,1376.47,550.51,1375.28,551.51z"/>
		<path class="st14" d="M1366.48,545.31c-1.2,3.82,7.76,9.44,8.64,9.99c7.62,4.71,18.28,3.65,20.77-0.36
			c1.83-2.95-0.67-5.79-4.08-8.9C1383.5,538.47,1367.89,540.81,1366.48,545.31z"/>
		<path class="st14" d="M1389.54,573.36h-2.18c-3.87,0-7-3.14-7-7v-13.42l16.14-0.32l0.05,13.74
			C1396.55,570.22,1393.41,573.36,1389.54,573.36z"/>
		<path class="st18" d="M1385.03,561.03c0.02-2.05-1.63-3.74-3.68-3.76c-2.05-0.02-3.74,1.63-3.76,3.68
			c-0.02,2.05,1.63,3.74,3.68,3.76C1383.33,564.74,1385.01,563.09,1385.03,561.03z"/>
		<path class="st39" d="M1395.03,551.96c1.17-0.66,2.62-0.8,3.89-0.39c1.28,0.42,2.36,1.38,2.92,2.6"/>
		<path class="st39" d="M1394.16,552.86c0.7-0.9,1.4-1.81,1.94-2.82c0.53-1.01,0.89-2.14,0.84-3.28c-0.08-1.88-1.21-3.53-2.32-5.05"
			/>
		<rect x="1349" y="790.59" class="st25" width="90.33" height="6.19"/>
		<path class="st39" d="M1296.66,783.34c0.39,0.91,1.11,2.29,2.44,3.61c1.5,1.48,2.2,1.7,2.51,1.88"/>
		<line class="st39" x1="1401.89" y1="740.59" x2="1422.24" y2="740.59"/>
		<rect x="1163.08" y="714.15" class="st3" width="5.61" height="204.97"/>
		<path class="st40" d="M1373.81,632.77c4.32,17.87,7.09,38.75,1.79,53.03c-2.82,7.59-11.05,12.08-21.74,14.56"/>
		<rect x="1267.47" y="907.03" class="st13" width="10.71" height="2.61"/>
		<path class="st15" d="M1278.13,907.03c0,0,4.65,4.47,0,9.12h-27.65c-0.13-0.55-0.72-3.23,0.88-5.89c1.29-2.14,3.24-2.98,3.88-3.23
			c4.41,0,8.83,0,13.24,0C1268.49,907.03,1273.28,909.84,1278.13,907.03z"/>
		
			<rect x="1246.54" y="916.15" transform="matrix(-1 -1.224647e-16 1.224647e-16 -1 2525.488 1835.2618)" class="st3" width="32.41" height="2.97"/>
		<path class="st15" d="M1255.25,907.03c-4.33,0-7.84,3.51-7.84,7.84v1.28h4.23c-0.09-0.95-0.1-2.43,0.41-4.12
			C1252.85,909.39,1254.45,907.75,1255.25,907.03z"/>
		<polygon class="st18" points="1269.51,902.04 1268.85,906.93 1276.96,907.2 1277.41,901.73 		"/>
		<path class="st41" d="M1262.41,907.32c-0.46,0.72-0.91,1.45-1.37,2.17"/>
		<path class="st41" d="M1265.04,907.52c-0.39,0.77-0.77,1.54-1.16,2.31"/>
		<rect x="1231.85" y="699.51" class="st4" width="61.28" height="2.99"/>
		<path class="st29" d="M1285.27,699.96c-3.38-0.46-6.31-0.9-8.67-1.27c-0.58-0.09-0.6-0.1-1.13-0.18c-2.98-0.48-5.36-0.8-6.92-1
			c0.78-0.52,2.48-1.81,3.56-4.16c0.87-1.89,0.94-3.61,0.91-4.52l0.02-0.17c0,0,27.78-5.58,48.76-8.4c0.49-0.07,0.97-0.13,1.46-0.19
			c1.94-0.25,3.84-0.48,5.7-0.68c3.55-0.39,6.89-0.67,9.9-0.81c3.06,4.25,5.86,9.03,8.71,13.89c1.66,2.84,3.12,5.62,4.39,8.3
			c-17.96,3.67-42.05,2.12-59.4,0.11C1289.97,700.58,1287.52,700.27,1285.27,699.96z"/>
		<rect x="1231.85" y="702.52" class="st38" width="120.11" height="6.32"/>
	</g>
	<g>
		<path class="st4" d="M2107.36,423.48c-4-8.71-5.41-21.54,1.29-27.45c6.44-5.68,14.8-0.05,20.97-5.79
			c6.15-5.73-0.11-14.26,4.35-23.46c6.8-14.01,34.35-22.07,46.47-10.82c5.55,5.15,8.57,15.01,5.5,22.25
			c-3.61,8.5-12.78,6.65-18.29,16.39c-5.08,8.96,0.41,14.57-4.74,20.6c-6.39,7.48-17.12,1.52-23.74,8.98
			c-6.42,7.24-0.16,18.05-5.2,20.29C2128.2,447.02,2113.34,436.52,2107.36,423.48z"/>
		
			<ellipse transform="matrix(0.7071 -0.7071 0.7071 0.7071 369.8101 1657.6091)" class="st20" cx="2185.82" cy="382.4" rx="9.31" ry="9.31"/>
		<path class="st19" d="M2282.63,521.66c0.6,0.04,1.2,0.08,1.8,0.12c0.67,0.05,1.33,0.09,1.99,0.22c1.41,1.93,3.91,3.14,6.29,3.27
			c0.97,0.06,1.95-0.06,2.92-0.18c0.39-0.05,0.75-0.15,1.32-0.28c1.06-0.24,1.94-0.47,2.23-0.55c1.61-0.45,4.84-1.34,5.61-3.63
			c0.07-0.22,0.7-1.22,0.14-1.43c-3.74-1.38-8.86-2.57-12.27-2.94c-0.06-0.9,0.18-1.75,0.89-2.31c0.44-0.34,0.97-0.55,1.47-0.8
			s0.98-0.6,1.22-1.1c0.24-0.5,0.15-1.2-0.33-1.49c-0.53-0.32-1.21-0.01-1.75,0.3c-0.92,0.52-1.84,1.04-2.75,1.56
			c-0.82,0.47-1.66,0.94-2.3,1.64c-0.32,0.34-0.6,0.75-1.03,0.93c-0.38,0.16-0.81,0.11-1.21,0.07c-1.07-0.13-2.13-0.25-3.2-0.38
			C2283.31,516.99,2282.98,519.36,2282.63,521.66z"/>
		<path class="st31" d="M2190.28,443.81c0,0,2.76,38.07,13.33,58.58c10.09,19.59,79.48,19.54,79.48,19.54l1.09-7.5
			c0,0-29.73-13.44-60.56-19.37c0,0-4.18-30.14-12.45-56.19c-1.51-4.74-7.35-6.44-11.16-3.23L2190.28,443.81z"/>
		<path class="st42" d="M2223.74,494.86c-0.44,2.54-1.97,4.87-4.12,6.29"/>
		<g>
			
				<rect x="2313.75" y="716.42" transform="matrix(-1 -1.224647e-16 1.224647e-16 -1 4638.4507 1435.5045)" class="st13" width="10.96" height="2.67"/>
			<path class="st15" d="M2313.79,716.42c0,0-4.75,4.58,0,9.33h28.29c0.14-0.56,0.73-3.31-0.91-6.02c-1.32-2.19-3.31-3.05-3.97-3.31
				c-4.52,0-9.03,0-13.55,0C2323.66,716.42,2318.76,719.29,2313.79,716.42z"/>
			<rect x="2312.95" y="725.75" class="st3" width="33.17" height="3.04"/>
			<path class="st15" d="M2337.21,716.42c4.43,0,8.02,3.59,8.02,8.02v1.31h-4.33c0.09-0.97,0.1-2.48-0.42-4.21
				C2339.67,718.83,2338.03,717.15,2337.21,716.42z"/>
			<polygon class="st18" points="2322.54,711.41 2323.21,716.42 2314.91,716.69 2314.45,711.09 			"/>
			<path class="st43" d="M2329.88,716.71c0.47,0.74,0.94,1.48,1.4,2.22"/>
			<path class="st43" d="M2327.19,716.91c0.4,0.79,0.79,1.58,1.19,2.37"/>
		</g>
		<path class="st14" d="M2322.89,711.59c0,0-9.94-79.23-21.08-140.26c-2.16-11.85-14.04-20.52-25.78-23.22
			c-20.74-4.75-51.31-10.76-70.86-11.88c0,0-0.09-16.34-12.42-38.81l-51.67,8.17c0,0-14.87,27.48-14.44,35.94
			c0,0-7.24,72.9,101.73,53.27l37.45-6.1c13.13,42.68,37.72,98.55,48.66,122.9H2322.89z"/>
		<rect x="2312.42" y="708.99" class="st14" width="11.67" height="4.2"/>
		<path class="st44" d="M2237.26,593.8h4.57c-0.04-0.24-0.09-0.48-0.13-0.72L2237.26,593.8z"/>
		<path class="st15" d="M2256.01,547.1c-20.37-3.81-48.14-6.87-65.9-7.83c0,0-3.08-27.87-7.01-39.64l-48.97,8.55
			c0,0-17.46,27.04-17.03,35.48c0,0-3.51,35.36,31.21,50.15h88.94l4.44-0.72c0.04,0.24,0.09,0.48,0.13,0.72
			c3.98,21.56,21.57,112.42,23.63,121.96l6.62-5.97c0,0,6.38-92.54,7.9-115.99c0.73-11.31,1.34-9.98,1.75-20.31
			C2282.3,558.95,2270.32,549.77,2256.01,547.1z"/>
		<path class="st29" d="M2204.49,528.66c0-30.82,5.52-53.19,9.17-66.53c0.8-2.91,0.65-9.57,0.79-17.98
			c0.11-6.51-3.36-12.55-9.03-15.76c-6.75-3.83-13.5-7.65-20.26-11.48l-17.72,1.34c-4.15,0.31-8.1,1.93-11.23,4.68
			c0,0-0.04,0.03-0.07,0.06c-7.23,6.42-11.93,50.48-11.93,50.48c-0.95,8.92-3.54,21.82-11.22,37.23c7.02,4.04,16.06,8.41,27,11.84
			C2175.58,527.43,2194.38,528.58,2204.49,528.66z"/>
		<path class="st18" d="M2177.41,412.3l2.74-14.56l14.57,2.17l-3.04,16.26c-0.26,3,2.86,6.04,5.48,7.52l4.74,2.68
			c0.1,8.78-0.43,19.92-4.18,20.81c-2.22,0.53-4.66-2.77-8.38-7.33c-4.37-5.35-10.92-12.92-19.91-21.77l0,0
			C2172.68,417.86,2176.57,415.47,2177.41,412.3z"/>
		<path class="st19" d="M2190.09,413.38c0.72,0.06,1.43,0.02,2.12-0.09l2.5-13.37l-14.57-2.17l-0.54,2.87
			C2180.22,406.74,2184.41,412.9,2190.09,413.38z"/>
		<path class="st18" d="M2197.71,385.06c0.44,0.48,3.8,4.21,3.78,9.5c-0.03,7.02-6.01,15.3-13,14.7c-6.68-0.57-11.31-9-10.47-15.98
			c0.75-6.18,5.95-12.52,11.73-12.45C2193.82,380.87,2196.79,384.07,2197.71,385.06z"/>
		<path class="st4" d="M2199.05,377.73c1.3,2.83-1.34,6.96-3.77,9.09c-5.99,5.26-17.07,4.04-18.84-0.1
			c-1.26-2.95,2.18-7.47,5.37-9.68C2187.75,372.93,2197.21,373.72,2199.05,377.73z"/>
		<rect x="2263.24" y="716.01" class="st18" width="10.75" height="2.93"/>
		<path class="st31" d="M2159.99,522.66c15.58,4.89,34.39,5.91,44.51,5.99c0.87-8.68,0-10.85-1.61-17.25
			c-5.96-3.83-32.83-14.34-37.24-16.73c-5.25-2.83,2.6-24.59-1.42-27.99c-3.1-2.63-8.61-16.68-17.07-14.19
			c-1.89,11.14-2.95,21.09-2.95,21.09c-0.95,8.91-3.54,21.82-11.22,37.23C2140.01,514.86,2149.04,519.23,2159.99,522.66z"/>
		<rect x="2263.12" y="707.84" class="st14" width="9.94" height="4.2"/>
		<path class="st15" d="M2263.24,716.01c0,0-4.99,4.81,0,9.8h21.6v-9.8h-11.23C2273.6,716.01,2268.45,719.03,2263.24,716.01z"/>
		<path class="st15" d="M2276.41,725.81h16.86v-2.14c0-4.23-3.43-7.66-7.66-7.66h-1.53c-4.23,0-7.66,3.43-7.66,7.66V725.81z"/>
		<rect x="2262.36" y="725.81" class="st3" width="31.63" height="2.97"/>
		<rect x="2263.85" y="712.04" class="st18" width="8.57" height="4.23"/>
		<path class="st43" d="M2278.35,716.42c-1.14,0.63-2.1,1.57-2.76,2.7"/>
		<path class="st43" d="M2275.6,715.76c-1.09,0.64-2.05,1.49-2.82,2.49"/>
		<path class="st18" d="M2174.74,391.35c0.2-1.78,1.8-3.06,3.58-2.86c1.78,0.2,3.06,1.8,2.86,3.58c-0.2,1.78-1.8,3.06-3.58,2.86
			C2175.83,394.74,2174.54,393.13,2174.74,391.35z"/>
		<path class="st0" d="M2176.92,394.15c0.1-0.71-0.39-1.37-1.1-1.48c-0.71-0.1-1.37,0.39-1.48,1.1c-0.1,0.71,0.39,1.37,1.1,1.48
			C2176.15,395.35,2176.81,394.86,2176.92,394.15z"/>
		<path class="st45" d="M2241.39,592.67c1.51-1.42,3.02-2.83,4.53-4.25"/>
		<path class="st42" d="M2169.46,417.54c4.94,5.63,9.89,11.27,14.83,16.9c2.06,2.35,4.12,4.69,6.18,7.04
			c1.7,1.94,3.47,3.92,5.66,5.23c0.85,0.51,1.96,0.31,2.56-0.48c0.63-0.83,1.13-1.75,1.48-2.73c0.57-1.59,0.73-3.3,0.88-4.98
			c0.38-4.13,0.76-8.25,1.14-12.38"/>
		<path class="st45" d="M2190.14,539.09c-4.97-0.59-10.04-0.38-14.95,0.61"/>
		<path class="st18" d="M2227.07,530.77c-0.9-1.08-0.69-3.15,0.91-4.46c1.02-0.2,2.49-0.41,4.28-0.41
			c5.25,0.01,9.13,1.91,11.71,3.21c1.38,0.69,3.13,1.7,5.04,3.13c0.99,0.74,0.33,2.32-0.9,2.13c-6.14-0.93-12.28-1.85-18.42-2.78
			C2229.57,531.61,2227.94,531.81,2227.07,530.77z"/>
		<path class="st29" d="M2168.77,420.73c-7.31-3.97-16.37,0.36-17.92,8.53c-3.46,18.22-8.92,52.51-3.86,65.55
			c7.03,18.12,80.22,35.67,80.22,35.67l1.31-4.36l-61.28-37.01c0,0,10-63.67,1.78-68.25
			C2168.93,420.82,2168.85,420.77,2168.77,420.73z"/>
		<path class="st42" d="M2171.03,452.99c-0.7,9.16-1.41,18.33-2.11,27.49c-0.2,2.63-0.38,5.4,0.8,7.75c1.27,2.54,3.87,4.1,6.34,5.52
			c8.98,5.17,17.97,10.35,26.95,15.52"/>
		<g>
			<g>
				<g>
					<g>
						<path class="st25" d="M2186.71,538.38l33.41,0.09l63.06-62.73c0.66-0.66,1.55-1.02,2.49-1.02l53.81,0.14
							c3.1,0.01,4.67,3.73,2.52,5.95l-61.06,63.17l-94.23-0.24L2186.71,538.38z"/>
					</g>
				</g>
				<path class="st25" d="M2280.93,543.96l-94.23-0.24l0.01-5.35l33.41,0.09l63.06-62.73c0.66-0.66,1.55-1.02,2.49-1.02l2.97,0.01
					l-0.95,62.27L2280.93,543.96z"/>
				
					<ellipse transform="matrix(0.5838 -0.8119 0.8119 0.5838 536.7921 2071.2263)" class="st24" cx="2288.53" cy="512.06" rx="9.81" ry="6.63"/>
			</g>
		</g>
		<path class="st5" d="M2214.95,598.09l21.53-4.17h-92.93C2158.63,600.35,2182,604.03,2214.95,598.09z"/>
	</g>
	<rect x="2148.64" y="598.69" class="st6" width="66.59" height="5.24"/>
</g>
<g>
	<path class="st0" d="M3530.13,919.96c98.6-122.21,101.45-186.09,85.03-221.94c-16.46-35.94-48.79-36.11-69.18-82.15
		c-25.94-58.58,11.72-91.47,2.88-165.74c-7.58-63.66-47.94-146.1-112.41-170.06c-76.97-28.6-124.56,49.85-198.88,21.62
		c-72.54-27.56-54.03-112.48-136.91-152.77c-61.08-29.69-148.02-20.94-188.8,23.06c-30.22,32.6-15.62,63.58-46.12,110.97
		c-39,60.62-94.64,39.49-116.74,82.15c-32.16,62.1,65.52,121.98,44.68,213.3c-15.45,67.7-77.4,70.98-109.53,147
		c-28.88,68.32-11.12,142.02,10.09,196C2972.87,920.92,3251.5,920.44,3530.13,919.96z"/>
	<path class="st4" d="M3209.79,401.32c5.46-11.27,21.79-48.4,12.15-93.43c-12.07-56.39-59.71-101.14-101.86-100.58
		c-55.75,0.73-119.73,80.97-108.27,194.02C3077.8,401.32,3143.8,401.32,3209.79,401.32z"/>
	<g>
		<g>
			<g>
				<g>
					<g>
						<path class="st46" d="M3510.94,866.75c-1.94-6.61-10.35-37.67,7.36-63.37c10.61-15.4,31.56-30.26,41.83-24.3
							c10.02,5.81,7.53,30.06,1.09,45.67C3549.14,853.99,3518.4,864.43,3510.94,866.75z"/>
					</g>
					<g>
						<path class="st46" d="M3452.94,922.73c0,0,33.43-22.98,58-55.99c24.56-33.01,37.54-65.16,37.54-65.16"/>
					</g>
					<path class="st46" d="M3527,843.15c5.62-2.15,11.25-4.3,16.88-6.45"/>
					<path class="st46" d="M3539.86,819.5c-1.13-5.1-2.26-10.19-3.39-15.29"/>
				</g>
			</g>
			<path class="st46" d="M3479.24,815.17c7.94-6.12,44.37-35.48,45.49-80.84c0.67-27.18-11.28-62.57-28.45-64.33
				c-16.75-1.72-34.54,28.94-40.3,52.8C3445.2,767.53,3472.45,806.07,3479.24,815.17z"/>
			<g>
				<g>
					<path class="st46" d="M3494.71,703.53c0,0-3.5,57.08-15.47,111.65c-11.98,54.57-24.96,107.39-24.96,107.39"/>
				</g>
				<g>
					<path class="st46" d="M3487.99,765.64c-4.27-10.37-8.55-20.74-12.82-31.11"/>
				</g>
				<g>
					<path class="st46" d="M3492.07,733.72c1-3.4,3.65-6.01,6.19-8.48c2.75-2.65,5.49-5.31,8.24-7.96"/>
				</g>
			</g>
		</g>
	</g>
	<g>
		<g>
			<g>
				<path class="st46" d="M2829.52,919.9c0,0,2.35-20.75-18.24-77.98c-20.59-57.23-49.58-99.47-49.58-99.47"/>
			</g>
			<g>
				<path class="st46" d="M2790.29,793.4c1.95-8.68,3.9-17.37,5.85-26.05"/>
			</g>
			<g>
				<path class="st46" d="M2776.72,767.69c-7.2-2.77-14.41-5.54-21.61-8.31"/>
			</g>
			<g>
				<path class="st46" d="M2808.85,835.04c0,0,50.46-62.15,2.84-63.46c0,0,8.65-84.37-22.96-46.16c0,0-54.55-71.46-49.92,21.96
					c0,0-32.29,1.03,15.82,36.24C2754.64,783.62,2703.58,806.17,2808.85,835.04z"/>
			</g>
		</g>
	</g>
	
		<ellipse transform="matrix(0.8608 -0.5089 0.5089 0.8608 277.1883 1610.5369)" class="st18" cx="3082.81" cy="298.54" rx="15.82" ry="15.82"/>
	<ellipse class="st19" cx="3080.1" cy="298.54" rx="6.2" ry="8.9"/>
	<path class="st15" d="M3319.71,920.39c-4.72-22.05-13.77-61.19-21.31-85.58c-2.17-7.03-19.73-71.85-25.89-72.04
		c-0.01,0-135.95-4.29-135.95-4.29c-2.27,53.97-4.54,107.94-6.8,161.92H3319.71z"/>
	<path class="st14" d="M3255.04,846.79c5.42,20.27,11.62,49.36,16.43,73.59h48.24c-4.72-22.05-13.77-61.19-21.31-85.58
		c-2.17-7.03-19.73-71.85-25.89-72.04c-0.01,0-135.95-4.29-135.95-4.29c-0.02,0.53-0.04,1.05-0.07,1.58
		c39.8,1.46,92.66,3.39,92.67,3.39C3235.31,763.66,3252.87,838.66,3255.04,846.79z"/>
	<path class="st15" d="M3157.49,920.39c5.46-32.61,9.67-72.65,10.41-120.22l-172.73,7.63c0,0-32.15,36.36-54.67,112.6H3157.49z"/>
	<path class="st29" d="M3044.82,422.01l-22.48,5.25c-10.4,2.43-19.17,9.37-23.89,18.95c-17.17,34.81-58.1,125.44-75.27,229.77
		c0,0-31.59,80.36-40.54,134.44c-2.41,14.58,6.97,28.51,21.37,31.84l1.91,0.44l20.8-28.5l74.38-123.69L3044.82,422.01z"/>
	<path class="st31" d="M3240.2,461.8c0,0,7.42,176.85,25.47,265.11c0,0-125.99,41.32,107.45,50.06
		c18.38,0.69,33.65-14.05,33.65-32.44l0,0c-71.2-21.64,13.53-33.54-57.68-55.19c-19.69-65.42-28.09-175.4-70.32-240.31L3240.2,461.8
		z"/>
	<path class="st29" d="M3299.68,839.16c6.33-81.37,6.66-176.63-6.61-281.85c-3.75-29.75-8.33-58.27-13.51-85.5
		c-3.77-19.79-17.96-35.98-37.09-42.3c-34.23-11.32-68.46-22.63-102.69-33.95l-109.68,30.55c-13.8,59.47-26.12,127.04-34.2,201.69
		c-7.75,71.6-12.94,137.05-12.48,196.06c37.48,10.28,86.2,20.21,139.29,24.15C3192.96,853.21,3253.42,847.26,3299.68,839.16z"/>
	<path class="st31" d="M3299.68,839.16c6.33-81.37,6.66-176.63-6.61-281.85c-4.81-38.14,3.33-78.36-14.3-108.27
		c-0.02-0.03-0.04-0.07-0.06-0.1c-3.48-5.92-8.95-10.41-15.47-12.57c-25.21-8.33-50.42-16.67-75.63-25
		c-16.89,12.88-22.84,30.5-9.12,54.56c40.3,70.7,19.02,273.23,3.42,383.99C3227.21,849.51,3267,844.88,3299.68,839.16z"/>
	<path class="st18" d="M3104.29,383.02l-0.64-61.76l61.33-2.98l0.78,68.98c1.37,12.49,16.59,22.36,28.52,26.31l21.55,7.13
		c-2.26,19.08-21.75,62.55-40.41,65.37c-35.36,5.34-79.15-54.38-99.1-72.83h0C3089.48,409.57,3103.44,396.66,3104.29,383.02z"/>
	<path class="st19" d="M3165.3,345.86l-0.31-27.58l-61.33,2.98l0.44,42.93c5.06,3.49,10.74,5.81,16.95,6.51
		C3138.29,372.64,3154.75,361.54,3165.3,345.86z"/>
	<path class="st18" d="M3103.05,255.1c-2.21,1.6-18.98,14.11-23.2,35.75c-5.6,28.74,12.15,67.44,41.2,70.7
		c27.79,3.12,53.57-27.6,55.79-56.83c1.97-25.9-14.16-56.04-37.85-60.47C3122.33,241.15,3107.6,251.8,3103.05,255.1z"/>
	<path class="st24" d="M3109.71,343.63c-0.33,2.53,4.56,5.48,8.57,6.2c7.01,1.26,14.97-3.65,18.5-12.6
		C3115.42,338.48,3110.04,341.17,3109.71,343.63z"/>
	<path class="st47" d="M3119.83,295.87c-0.15,1.65-2.69,14.58-3.91,20.72c-0.36,1.81,0.76,3.57,2.55,4.02l5.7,1.43"/>
	<path class="st19" d="M3163.63,323.1c0-3.77-4.43-6.83-9.91-6.83c-5.47,0-9.91,3.06-9.91,6.83s4.43,6.83,9.91,6.83
		C3159.2,329.93,3163.63,326.87,3163.63,323.1z"/>
	<path class="st19" d="M3088.73,316.27c-3.15,0-5.95,1.02-7.77,2.6c0.88,3.53,2.02,7,3.4,10.36c1.32,0.45,2.8,0.71,4.36,0.71
		c5.47,0,9.91-3.06,9.91-6.83C3098.63,319.33,3094.2,316.27,3088.73,316.27z"/>
	<path class="st48" d="M3108.74,291.43c0,0-8.39-7.83-13.48,0"/>
	<path class="st48" d="M3147.95,291.43c0,0-8.39-7.83-13.48,0"/>
	
		<ellipse transform="matrix(0.4184 -0.9082 0.9082 0.4184 1575.239 3057.1892)" class="st18" cx="3174.88" cy="298.54" rx="15.82" ry="15.82"/>
	<path class="st19" d="M3186.89,299.3c0.29-4.9-2.24-9.21-5.65-9.63c-3.41-0.42-6.41,3.21-6.7,8.11c-0.29,4.9,2.24,9.21,5.65,9.63
		C3183.6,307.83,3186.6,304.2,3186.89,299.3z"/>
	<path class="st24" d="M3191.32,311.86c0-2.44-1.98-4.41-4.41-4.41s-4.41,1.98-4.41,4.41s1.98,4.41,4.41,4.41
		S3191.32,314.29,3191.32,311.86z"/>
	<path class="st4" d="M3076.71,227.76c-5.38,13.52,25.56,36.34,28.61,38.56c26.36,19.14,66.99,28.8,77.13,14.93
		c7.45-10.2-2.56-31.75-14.1-43.95C3140.3,207.61,3083.05,211.83,3076.71,227.76z"/>
	<path class="st49" d="M3092.72,242.28c6.13,7.71,18.56,21.18,38.72,30.58c15.9,7.41,30.33,9.36,39.46,9.86"/>
	<line class="st50" x1="2654.9" y1="921.4" x2="3538.23" y2="921.4"/>
	<line class="st50" x1="3578.93" y1="921.4" x2="3637.25" y2="921.4"/>
	<path class="st18" d="M2901.19,809.7c17.69-23.86,24.43-27.71,27.21-26.33c3.82,1.9,4.37,15.85-4.46,23.73
		C2917.75,812.62,2908.63,813.68,2901.19,809.7z"/>
	<path class="st18" d="M3412.17,751.91c-10.91-27.62-16.43-33.09-19.47-32.47c-4.18,0.84-8.32,14.18-1.83,24.08
		C3395.42,750.45,3403.95,753.83,3412.17,751.91z"/>
	<g>
		<path class="st6" d="M3382.42,806.56h-456.1V518.93c0-8.85,7.18-16.03,16.03-16.03h424.03c8.85,0,16.03,7.18,16.03,16.03V806.56z"
			/>
		<rect x="2938.57" y="514.4" class="st3" width="431.97" height="274.06"/>
		<path class="st4" d="M3133.32,795.92h-102.17h-122.22l0,0c0,15.1,0,27.34,36.23,27.34h85.99h102.17h230.28
			c36.23,0,36.23-12.24,36.23-27.34l0,0H3133.32z"/>
		
			<ellipse transform="matrix(0.7071 -0.7071 0.7071 0.7071 413.328 2617.0447)" class="st51" cx="3365.72" cy="809.59" rx="7.28" ry="7.28"/>
	</g>
	<path class="st18" d="M2889.88,821.95c-1.22,11.29,6.68,21.58,17.92,23.22c6.18,0.9,13.45,1.04,21.28-0.62
		c11.42-2.42,20.24-3.96,24.73-11.48c2.72-4.57,4.01-11.54,1.42-16.77c-1.51-3.06-5.2-6.91-8.74-9.59c0,0-0.01-0.01-0.01-0.01
		c-4.55-3.45-21.33-8.57-38.89-0.45C2900.24,809.63,2890.76,813.7,2889.88,821.95z"/>
	<path class="st18" d="M3413.71,760.52c-2.36,11.11-13.07,18.43-24.26,16.48c-6.15-1.07-13.11-3.21-20.02-7.22
		c-10.1-5.85-18-10.07-19.92-18.61c-1.17-5.19-0.21-12.22,3.88-16.38c2.39-2.43,7.09-4.94,11.29-6.39c0,0,0.01,0,0.02-0.01
		c5.4-1.86,22.94-1.5,37.09,11.68C3407.7,745.58,3415.43,752.41,3413.71,760.52z"/>
	<g>
		<rect x="2832.45" y="352.7" class="st38" width="115.04" height="13.27"/>
		<path class="st38" d="M2869.44,364.44h-52.37v-9.22c0-5.88,4.77-10.65,10.65-10.65h31.07c5.88,0,10.65,4.77,10.65,10.65V364.44z"
			/>
		<rect x="2821.5" y="357.68" class="st24" width="121.74" height="6.77"/>
		<polygon class="st20" points="2947.48,446.53 2817.06,446.53 2814.67,364.44 2949.87,364.44 		"/>
	</g>
	<g>
		<g>
			<g>
				<path class="st52" d="M3318.98,203.52c-6.77-8.59-17.27-14.1-29.06-14.1c-11.79,0-22.28,5.51-29.06,14.1"/>
				<path class="st52" d="M3339.24,182.82c-12.06-13.63-29.69-22.23-49.32-22.23s-37.26,8.59-49.32,22.23"/>
				<path class="st52" d="M3359.6,162.02c-17.33-18.74-42.13-30.48-69.68-30.48c-27.54,0-52.34,11.74-69.68,30.48"/>
			</g>
		</g>
		
			<ellipse transform="matrix(0.9871 -0.1602 0.1602 0.9871 6.565 529.8829)" class="st0" cx="3289.92" cy="224.22" rx="11.84" ry="11.84"/>
	</g>
	<path class="st24" d="M3261,626.56v-0.11c0-25.52-20.69-46.21-46.21-46.21l0,0c-10.6,0-20.37,3.57-28.17,9.58
		c-7.34-26.82-31.88-46.52-61.03-46.52h-4.2c-31.63,0-57.83,23.2-62.53,53.52c-30.73,3.28-54.67,29.29-54.67,60.89v0
		c0,33.82,27.42,61.24,61.24,61.24h123.24v-0.19h67.7c25.52,0,46.21-20.69,46.21-46.21v0C3302.58,648.58,3284.35,628.88,3261,626.56
		z"/>
	<g>
		<rect x="3041.08" y="739.19" class="st24" width="211.21" height="26.51"/>
		<rect x="3041.08" y="739.19" class="st25" width="138.41" height="26.51"/>
	</g>
	<g>
		<polyline class="st53" points="3171.96,640.61 3157.64,657.79 3157.64,621.53 		"/>
		<line class="st53" x1="3143.32" y1="640.61" x2="3157.64" y2="657.79"/>
	</g>
	<polyline class="st53" points="3137.35,663.76 3137.35,669.97 3177.92,669.97 3177.92,663.76 	"/>
	<circle class="st53" cx="3157.64" cy="649.2" r="39.94"/>
	<path class="st9" d="M3486.1,382.78c-8.58-0.34-18.95-1.48-30.44-4.32c-7.98-1.97-15.04-4.41-21.08-6.88
		c-6.14,2.22-13.29,4.36-21.35,6.01c-11.59,2.36-22,3.07-30.59,3.06c-1.12,6.91-5.33,37.53,14.52,65.52
		c12.07,17.01,27.48,25.23,35.36,28.75c8.02-3.19,23.76-10.77,36.52-27.27c20.98-27.14,18.05-57.91,17.21-64.86"/>
	<path class="st9" d="M3476.9,382.14c-6.45-0.65-13.6-1.78-21.24-3.67c-7.98-1.97-15.04-4.41-21.08-6.88
		c-6.14,2.22-13.29,4.36-21.35,6.01c-11.59,2.36-22,3.07-30.59,3.06c-1.12,6.91-5.33,37.53,14.52,65.52
		c8.14,11.48,17.8,18.95,25.64,23.68c8.04-3.2,23.74-10.78,36.47-27.25C3477.24,419.36,3477.68,393.47,3476.9,382.14z"/>
	<polyline class="st54" points="3414.56,412.14 3433.65,432.04 3453.81,412.7 	"/>
</g>
</svg>
